<svg aria-hidden="true" style="position: absolute; width: 0; height: 0; overflow: hidden;" version="1.1" xmlns="http://www.w3.org/2000/svg" xmlns:xlink="http://www.w3.org/1999/xlink">
<defs>
<symbol id="icon-coinpuzzles" viewBox="0 0 29 32">
<path fill="#0c3e96" style="fill: var(--color1, #0c3e96)" d="M14.305 0c0.704-0.003 1.402 0.135 2.051 0.407s1.239 0.67 1.731 1.173c1.005 1.019 1.566 2.393 1.563 3.825 0.006 0.503-0.067 1.004-0.216 1.484l0.062-0.066c0.495-0.5 1.084-0.896 1.734-1.167s1.346-0.409 2.049-0.409c0.697 0.001 1.387 0.141 2.029 0.411s1.224 0.666 1.712 1.164c1.004 1.019 1.566 2.394 1.563 3.825 0.002 1.421-0.56 2.785-1.563 3.791-0.706 0.71-1.593 1.212-2.565 1.451 0.974 0.218 1.864 0.712 2.565 1.422 1.004 1.019 1.566 2.394 1.563 3.825 0.011 1.059-0.295 2.097-0.877 2.982s-1.417 1.574-2.394 1.982c-0.978 0.407-2.055 0.513-3.093 0.305s-1.991-0.723-2.735-1.477l-0.062-0.067c0.147 0.492 0.22 1.004 0.216 1.517 0.005 0.706-0.13 1.406-0.396 2.060s-0.659 1.249-1.156 1.751-1.087 0.901-1.739 1.174c-0.651 0.273-1.35 0.415-2.056 0.418-1.406-0.017-2.749-0.584-3.741-1.58-0.679-0.703-1.162-1.573-1.398-2.522s-0.219-1.943 0.051-2.883c-0.024 0.057-0.069 0.103-0.125 0.129-0.487 0.499-1.069 0.895-1.712 1.166s-1.332 0.412-2.030 0.413c-1.419-0.008-2.777-0.577-3.778-1.584s-1.561-2.368-1.56-3.787c-0.002-1.431 0.559-2.805 1.563-3.825 0.706-0.703 1.594-1.196 2.565-1.422-0.969-0.247-1.854-0.748-2.565-1.451-1.003-1.007-1.565-2.37-1.563-3.791-0.002-1.431 0.559-2.805 1.563-3.825 0.495-0.5 1.084-0.896 1.734-1.167s1.346-0.409 2.049-0.409c0.697 0.001 1.387 0.141 2.029 0.411s1.224 0.666 1.712 1.164c0.050 0.034 0.092 0.078 0.125 0.129-0.151-0.501-0.224-1.023-0.216-1.546-0.003-1.431 0.558-2.805 1.563-3.825 0.488-0.499 1.069-0.895 1.712-1.166s1.332-0.412 2.030-0.413h0.004zM26.439 13.303l-5.849-5.845c0.275-0.237 0.58-0.438 0.906-0.599l5.525 5.462 0.062-0.033c-0.028 0.091-0.070 0.176-0.125 0.254-0.129 0.275-0.297 0.529-0.499 0.757l-0.021 0.004zM27.158 12.056l-5.379-5.338c0.082-0.027 0.165-0.048 0.249-0.062 0.516-0.161 1.057-0.226 1.596-0.191 0.535 0.041 1.055 0.191 1.53 0.441 0.491 0.247 0.928 0.591 1.285 1.010 0.332 0.431 0.595 0.91 0.782 1.422 0.163 0.538 0.216 1.104 0.154 1.663-0.026 0.365-0.099 0.726-0.216 1.073v-0.017zM19.152 10.443c1.467 1.422 2.91 2.877 4.377 4.327-0.197 0.033-0.398 0.033-0.594 0-0.543-0.039-1.072-0.188-1.556-0.437s-0.912-0.594-1.258-1.014c-0.349-0.419-0.615-0.902-0.782-1.422-0.156-0.468-0.219-0.962-0.187-1.455zM26.252 13.506l-5.882-5.828c-0.329 0.302-0.595 0.666-0.782 1.072l-0.029 0.033v0.029c-0.191 0.393-0.319 0.814-0.378 1.247l4.693 4.677c0.904-0.155 1.736-0.592 2.378-1.247v0.017zM19.152 7.678c-0.126 0.293-0.283 0.572-0.47 0.831-0.32 0.671-0.481 1.406-0.47 2.149 0.011 0.741 0.17 1.472 0.47 2.149 0.177 0.245 0.323 0.51 0.437 0.79l0.565 0.661c0.955 0.951 2.248 1.485 3.596 1.484 0.663-0 1.319-0.132 1.931-0.386s1.168-0.628 1.635-1.098c0.942-0.961 1.469-2.254 1.467-3.6 0.002-1.356-0.525-2.659-1.467-3.633-0.466-0.474-1.021-0.851-1.633-1.11s-1.269-0.395-1.934-0.399c-1.348 0.001-2.64 0.534-3.596 1.484-0.188 0.213-0.366 0.435-0.532 0.665v0.013zM18.15 9.129l-0.062 0.062c-0.705 0.712-1.592 1.215-2.565 1.455 0.975 0.216 1.866 0.709 2.565 1.422l0.062 0.062c-0.137-0.483-0.211-0.982-0.22-1.484 0.008-0.513 0.082-1.023 0.22-1.517zM19.434 14.375c0.151 0.49 0.224 1.001 0.216 1.513 0.006 0.503-0.067 1.004-0.216 1.484l0.062-0.062c0.705-0.705 1.594-1.198 2.565-1.422-0.97-0.245-1.855-0.746-2.565-1.451l-0.062-0.062zM18.902 13.71c-0.169-0.239-0.317-0.492-0.441-0.757-0.187-0.254-0.374-0.474-0.561-0.698-0.941-0.916-2.192-1.445-3.504-1.484h-0.154c-0.664 0.008-1.32 0.146-1.93 0.408s-1.163 0.641-1.626 1.116c-0.463 0.475-0.828 1.037-1.074 1.654s-0.367 1.276-0.358 1.94c-0.012 0.876 0.215 1.738 0.657 2.494l0.033 0.091c0.207 0.376 0.471 0.718 0.782 1.014 0.465 0.48 1.022 0.861 1.637 1.121s1.276 0.395 1.944 0.395 1.329-0.134 1.944-0.395c0.615-0.26 1.172-0.642 1.637-1.121 0.187-0.191 0.374-0.445 0.561-0.665 0.116-0.279 0.264-0.544 0.441-0.79 0.316-0.672 0.475-1.407 0.466-2.149 0.009-0.752-0.15-1.496-0.466-2.178l0.013 0.004zM18.433 8.339c0.138-0.274 0.295-0.538 0.47-0.79 0.313-0.672 0.471-1.404 0.466-2.145 0.002-1.356-0.525-2.659-1.467-3.633-0.47-0.47-1.029-0.844-1.643-1.098s-1.273-0.386-1.938-0.386c-0.665 0-1.324 0.131-1.938 0.386s-1.173 0.628-1.643 1.098c-0.944 0.974-1.472 2.277-1.472 3.633-0.004 0.86 0.212 1.708 0.628 2.461l0.029 0.033 0.033 0.096c0.225 0.363 0.487 0.701 0.782 1.010 0.457 0.466 1.002 0.838 1.604 1.092s1.247 0.388 1.901 0.392h0.154c0.653-0.004 1.299-0.137 1.901-0.392s1.146-0.626 1.604-1.092c0.201-0.202 0.379-0.425 0.532-0.665zM8.485 13.299l-5.878-5.845h0.029c0.276-0.238 0.582-0.439 0.91-0.599l5.504 5.496 0.062-0.062c-0.033 0.096-0.096 0.158-0.125 0.254-0.131 0.275-0.3 0.53-0.503 0.757zM9.204 12.051l-5.379-5.321c0.062-0.033 0.158-0.033 0.22-0.062 0.526-0.159 1.077-0.224 1.625-0.191 0.535 0.045 1.056 0.195 1.534 0.441 0.485 0.241 0.911 0.586 1.247 1.010 0.353 0.417 0.619 0.9 0.782 1.422 0.189 0.533 0.253 1.102 0.187 1.663-0.028 0.365-0.102 0.726-0.22 1.073l0.004-0.033zM1.197 10.438l4.382 4.327c-0.197 0.033-0.398 0.033-0.594 0-0.546-0.037-1.078-0.187-1.563-0.441-0.482-0.246-0.906-0.59-1.247-1.010-0.351-0.418-0.616-0.901-0.782-1.422-0.155-0.469-0.22-0.962-0.191-1.455h-0.004zM8.314 13.519l-5.895-5.841c-0.329 0.302-0.595 0.667-0.782 1.073l-0.033 0.033v0.029c-0.188 0.394-0.314 0.815-0.374 1.247l4.689 4.677c0.904-0.155 1.736-0.592 2.378-1.247l0.017 0.029zM6.531 15.888c0.974 0.217 1.864 0.711 2.565 1.422l0.125 0.129c-0.152-0.503-0.225-1.026-0.216-1.551-0.008-0.534 0.065-1.067 0.216-1.58-0.033 0.051-0.075 0.095-0.125 0.129-0.705 0.711-1.593 1.213-2.565 1.451zM10.443 12.226c0.031-0.060 0.073-0.114 0.125-0.158 0.699-0.712 1.59-1.206 2.565-1.422-0.973-0.24-1.86-0.743-2.565-1.455-0.050-0.032-0.093-0.075-0.125-0.125 0.151 0.513 0.224 1.045 0.216 1.58 0.006 0.534-0.067 1.067-0.216 1.58zM9.752 8.152l-0.062-0.129c-0.224-0.363-0.486-0.702-0.782-1.010-0.468-0.47-1.023-0.843-1.635-1.097s-1.268-0.386-1.931-0.387c-1.347 0.003-2.639 0.536-3.596 1.484-0.943 0.974-1.469 2.278-1.467 3.633-0.006 0.668 0.121 1.33 0.373 1.948s0.624 1.18 1.096 1.653 1.032 0.848 1.649 1.102c0.617 0.255 1.279 0.384 1.946 0.381 0.663 0 1.32-0.131 1.932-0.385s1.168-0.628 1.635-1.099c0.943-0.961 1.471-2.254 1.472-3.6 0.009-0.872-0.208-1.731-0.628-2.494zM8.505 23.82l-5.87-5.832v-0.033c0.283-0.228 0.588-0.429 0.91-0.599l5.504 5.496 0.062-0.062c-0.033 0.096-0.096 0.187-0.125 0.254-0.138 0.281-0.307 0.546-0.503 0.79l0.021-0.012zM9.225 22.573l-5.4-5.325c0.062-0.033 0.158-0.062 0.22-0.096 0.527-0.158 1.077-0.221 1.625-0.187 0.538 0.053 1.060 0.214 1.534 0.474 0.492 0.245 0.928 0.589 1.28 1.010 0.347 0.416 0.603 0.901 0.752 1.422 0.187 0.514 0.251 1.065 0.187 1.609-0.027 0.376-0.101 0.748-0.22 1.106l0.021-0.013zM1.218 20.931c1.438 1.455 2.91 2.91 4.382 4.361h-0.611c-0.545-0.065-1.074-0.225-1.563-0.474-0.971-0.512-1.701-1.386-2.033-2.432-0.157-0.468-0.222-0.962-0.191-1.455h0.017zM8.314 24.007l-5.878-5.845c-0.322 0.31-0.587 0.674-0.782 1.077l-0.033 0.029v0.033c-0.19 0.411-0.316 0.848-0.374 1.297l4.689 4.673c0.458-0.080 0.9-0.228 1.314-0.441 0.394-0.222 0.753-0.503 1.064-0.831v0.008zM10.443 22.714c0.030-0.061 0.072-0.115 0.125-0.158 0.699-0.712 1.59-1.206 2.565-1.422-0.982-0.215-1.876-0.723-2.565-1.455-0.028-0.011-0.053-0.028-0.075-0.050s-0.038-0.047-0.050-0.075c0.288 1.033 0.288 2.126 0 3.159zM9.752 18.607l-0.029-0.033-0.033-0.029c-0.206-0.377-0.47-0.719-0.782-1.014-0.462-0.479-1.016-0.86-1.629-1.12s-1.272-0.394-1.938-0.393c-0.67-0-1.333 0.134-1.951 0.393s-1.177 0.641-1.645 1.12c-0.941 0.963-1.467 2.256-1.467 3.602s0.527 2.639 1.467 3.602c0.953 0.958 2.245 1.503 3.596 1.517 1.345-0.018 2.628-0.565 3.571-1.523s1.471-2.25 1.467-3.594c0.005-0.882-0.211-1.751-0.628-2.527zM17.51 29.062l-5.878-5.845 0.029-0.029c0.274-0.231 0.579-0.423 0.906-0.569l5.508 5.462 0.062-0.062c-0.033 0.096-0.096 0.191-0.129 0.287-0.154 0.249-0.312 0.503-0.499 0.757zM18.2 27.815l-5.35-5.342 0.22-0.091c0.516-0.155 1.054-0.22 1.592-0.191 0.549 0.051 1.082 0.213 1.567 0.474 0.48 0.248 0.905 0.592 1.247 1.010 0.366 0.407 0.634 0.894 0.782 1.422 0.17 0.52 0.234 1.068 0.187 1.613-0.026 0.379-0.11 0.752-0.249 1.106h0.004zM10.193 26.173c1.467 1.451 2.939 2.91 4.377 4.357h-0.595c-0.538-0.054-1.059-0.215-1.534-0.474-0.485-0.241-0.911-0.586-1.247-1.010-0.366-0.407-0.634-0.894-0.781-1.422-0.151-0.468-0.225-0.959-0.216-1.451h-0.004zM17.323 29.237l-5.895-5.845c-0.316 0.315-0.581 0.677-0.786 1.073l-0.029 0.062c-0.205 0.405-0.332 0.845-0.374 1.297l4.689 4.677c0.458-0.082 0.9-0.232 1.314-0.445 0.395-0.222 0.753-0.502 1.064-0.831l0.017 0.012zM18.919 24.182c-0.177-0.235-0.325-0.49-0.441-0.761-0.171-0.233-0.359-0.454-0.561-0.661-0.465-0.48-1.022-0.861-1.637-1.121s-1.276-0.395-1.944-0.395c-0.668 0-1.329 0.134-1.944 0.395s-1.172 0.642-1.637 1.121c-0.303 0.314-0.565 0.666-0.777 1.048l-0.033 0.029c-0.427 0.774-0.653 1.643-0.657 2.527-0.006 1.348 0.523 2.642 1.472 3.6 0.465 0.48 1.022 0.861 1.637 1.121s1.276 0.395 1.944 0.395 1.329-0.134 1.945-0.395c0.615-0.26 1.172-0.642 1.637-1.121 0.947-0.958 1.475-2.253 1.467-3.6 0.006-0.751-0.153-1.495-0.466-2.178l-0.004-0.004zM18.166 22.602c-0.294-0.979-0.294-2.022 0-3.001l-0.062 0.062c-0.689 0.732-1.583 1.239-2.565 1.455 0.975 0.216 1.866 0.709 2.565 1.422l0.062 0.062zM18.698 23.263c0.174 0.253 0.331 0.517 0.47 0.79 0.151 0.241 0.33 0.464 0.532 0.665 0.952 0.959 2.244 1.504 3.596 1.517 0.666 0 1.325-0.134 1.938-0.395s1.167-0.643 1.629-1.123c0.941-0.963 1.467-2.256 1.467-3.602s-0.527-2.639-1.467-3.602c-0.463-0.479-1.017-0.859-1.63-1.119s-1.272-0.394-1.937-0.394c-0.67-0.001-1.334 0.133-1.951 0.392s-1.177 0.641-1.645 1.121c-0.202 0.201-0.381 0.424-0.532 0.665-0.138 0.263-0.295 0.516-0.47 0.757-0.303 0.688-0.463 1.431-0.47 2.182 0.007 0.74 0.167 1.47 0.47 2.145zM26.439 23.808l-5.849-5.82v-0.033c0.283-0.227 0.586-0.428 0.906-0.599l5.525 5.483 0.062-0.062c-0.022 0.093-0.064 0.179-0.125 0.254-0.137 0.281-0.304 0.546-0.499 0.79l-0.021-0.013zM27.158 22.561l-5.379-5.338 0.249-0.096c0.516-0.16 1.057-0.223 1.596-0.187 0.538 0.049 1.059 0.211 1.53 0.474 0.493 0.245 0.931 0.589 1.285 1.010 0.345 0.422 0.61 0.904 0.782 1.422 0.162 0.52 0.214 1.068 0.154 1.609-0.025 0.376-0.098 0.748-0.216 1.106zM19.152 20.918c1.467 1.455 2.939 2.91 4.377 4.361h-0.594c-0.548-0.051-1.079-0.212-1.563-0.474-0.479-0.25-0.904-0.593-1.247-1.010-0.356-0.415-0.622-0.899-0.782-1.422-0.158-0.468-0.221-0.962-0.187-1.455h-0.004zM26.252 23.982l-5.882-5.82c-0.312 0.319-0.575 0.682-0.782 1.077l-0.029 0.029v0.033c-0.193 0.41-0.321 0.848-0.378 1.297l4.693 4.673c0.457-0.081 0.9-0.229 1.314-0.441 0.399-0.215 0.759-0.496 1.064-0.831v-0.017zM17.493 18.52l-5.878-5.82 0.029-0.029c0.283-0.229 0.586-0.431 0.906-0.603l5.508 5.5 0.062-0.067c-0.036 0.088-0.079 0.173-0.129 0.254-0.14 0.27-0.307 0.525-0.499 0.761v0.004zM18.183 17.318l-5.35-5.338c0.062-0.033 0.158-0.066 0.22-0.096 0.516-0.155 1.054-0.22 1.592-0.191 0.546 0.066 1.076 0.226 1.567 0.474 0.467 0.268 0.888 0.609 1.247 1.010 0.361 0.422 0.628 0.917 0.782 1.451 0.172 0.519 0.236 1.068 0.187 1.613-0.025 0.379-0.109 0.752-0.249 1.106l0.004-0.029zM10.177 15.676c1.463 1.48 2.939 2.897 4.373 4.39-0.199 0.004-0.397-0.006-0.594-0.029-0.536-0.046-1.057-0.197-1.534-0.445-0.486-0.239-0.912-0.584-1.247-1.010-0.361-0.413-0.628-0.899-0.782-1.426-0.149-0.469-0.222-0.959-0.216-1.451v-0.029zM17.306 18.74l-5.878-5.845c-0.322 0.309-0.588 0.672-0.786 1.072l-0.029 0.033v0.033c-0.205 0.403-0.332 0.842-0.374 1.293l4.689 4.643c0.916-0.119 1.759-0.562 2.378-1.247v0.017zM17.493 8.031l-5.878-5.845h0.025c0.274-0.239 0.579-0.44 0.906-0.599l5.508 5.496 0.062-0.062c-0.033 0.091-0.096 0.158-0.129 0.249-0.139 0.271-0.306 0.526-0.499 0.761h0.004zM18.183 6.784l-5.35-5.3c0.062-0.029 0.158-0.029 0.22-0.062 0.516-0.156 1.055-0.219 1.592-0.187 0.818 0.066 1.597 0.375 2.238 0.887s1.115 1.203 1.362 1.986c0.17 0.53 0.234 1.088 0.187 1.642-0.025 0.369-0.109 0.731-0.249 1.073v-0.037zM10.177 5.176c1.467 1.422 2.939 2.873 4.377 4.327-0.197 0.033-0.398 0.033-0.595 0-0.535-0.046-1.056-0.196-1.534-0.441-0.485-0.242-0.911-0.588-1.247-1.014-0.361-0.41-0.628-0.894-0.781-1.418-0.147-0.471-0.22-0.962-0.216-1.455h-0.004zM17.306 8.239l-5.878-5.845c-0.323 0.31-0.589 0.674-0.786 1.077l-0.029 0.029v0.033c-0.203 0.388-0.33 0.811-0.374 1.247l4.689 4.673c0.461-0.065 0.906-0.215 1.314-0.441 0.399-0.198 0.759-0.465 1.064-0.79v0.017z"></path>
</symbol>
<symbol id="icon-puzzlequizzes" viewBox="0 0 32 32">
<path fill="#fff" style="fill: var(--color2, #fff)" d="M14.070 31.992h12.51l0.807-4.279 0.899-4.836c-0.779 0.618-1.684 1.062-2.652 1.301s-1.978 0.267-2.959 0.083c-1.818-0.353-3.421-1.405-4.457-2.926s-1.423-3.385-1.074-5.187c0.163-0.892 0.503-1.742 1-2.504s1.14-1.418 1.894-1.932c0.754-0.514 1.603-0.875 2.498-1.063s1.819-0.199 2.719-0.032c1.817 0.353 3.419 1.405 4.456 2.925s1.423 3.384 1.076 5.185v0.025l-1.789 9.42-0.705 3.819h0.856c0.76-0.012 1.484-0.319 2.018-0.854s0.833-1.257 0.835-2.010v-23.405c0-0.758-0.302-1.486-0.841-2.025s-1.271-0.845-2.037-0.853h-10.013c-0.155 0.001-0.304 0.056-0.422 0.155s-0.197 0.236-0.223 0.387l-5.007 27.884c-0.017 0.136 0.008 0.274 0.071 0.395s0.163 0.221 0.285 0.285c0.079 0.032 0.163 0.048 0.248 0.048l0.009-0.008zM17.953-0.008h-15.074c-0.766 0.006-1.499 0.312-2.039 0.851s-0.841 1.268-0.84 2.027v16.733l1.472-8.79v-0.025c0.144-0.894 0.466-1.752 0.946-2.522s1.11-1.44 1.852-1.969c0.742-0.529 1.583-0.908 2.474-1.114s1.814-0.237 2.716-0.089c1.827 0.313 3.454 1.332 4.524 2.831s1.495 3.358 1.182 5.168c-0.144 0.894-0.466 1.751-0.946 2.522s-1.11 1.44-1.852 1.969-1.583 0.908-2.474 1.114c-0.891 0.206-1.814 0.236-2.716 0.087-0.986-0.166-1.924-0.542-2.749-1.102s-1.517-1.29-2.030-2.141l-0.839 4.87-1.227 7.223c0.245 0.46 0.611 0.846 1.059 1.117s0.963 0.416 1.488 0.42h10.036c0.153-0 0.302-0.053 0.422-0.148s0.202-0.229 0.235-0.377l4.989-27.91c0.020-0.136-0.004-0.274-0.068-0.396s-0.165-0.22-0.289-0.282c-0.079-0.036-0.164-0.056-0.251-0.057l-0.003-0.008zM9.195 6.771c1.38 0.241 2.607 1.012 3.415 2.146s1.13 2.537 0.896 3.905c-0.111 0.676-0.355 1.324-0.719 1.907s-0.841 1.089-1.402 1.489c-0.562 0.4-1.198 0.687-1.871 0.844s-1.372 0.181-2.055 0.070c-1.378-0.241-2.604-1.011-3.411-2.142s-1.131-2.533-0.899-3.899c0.111-0.676 0.355-1.324 0.719-1.907s0.841-1.089 1.402-1.489c0.562-0.4 1.198-0.687 1.871-0.844s1.372-0.181 2.055-0.070v-0.008zM24.931 12.296c1.374 0.266 2.586 1.060 3.37 2.209s1.076 2.558 0.812 3.92c-0.123 0.674-0.38 1.317-0.755 1.893s-0.862 1.072-1.432 1.46c-0.57 0.388-1.212 0.662-1.888 0.804s-1.375 0.15-2.055 0.024c-1.375-0.265-2.587-1.060-3.37-2.209s-1.075-2.559-0.809-3.921c0.123-0.674 0.379-1.317 0.754-1.893s0.861-1.072 1.431-1.46c0.57-0.389 1.211-0.662 1.888-0.804s1.375-0.15 2.055-0.024z"></path>
</symbol>
<symbol id="icon-coinpuzzlesrgb" viewBox="0 0 29 32">
<path fill="#cdcfd1" style="fill: var(--color3, #cdcfd1)" d="M14.508 31.746c1.038 0.007 2.055-0.294 2.922-0.865s1.545-1.386 1.948-2.343c0.403-0.956 0.513-2.011 0.317-3.030s-0.691-1.957-1.421-2.695c-0.73-0.738-1.663-1.243-2.68-1.45s-2.073-0.109-3.034 0.284c-0.961 0.393-1.783 1.062-2.364 1.922s-0.892 1.874-0.896 2.912c-0.005 0.688 0.126 1.371 0.386 2.008s0.642 1.217 1.127 1.706c0.484 0.489 1.060 0.878 1.695 1.144s1.316 0.404 2.004 0.406h-0.003z"></path>
<path fill="#84898f" style="fill: var(--color4, #84898f)" d="M14.508 30.83c0.855 0.010 1.695-0.235 2.411-0.703s1.277-1.139 1.611-1.926c0.334-0.788 0.427-1.657 0.266-2.497s-0.568-1.614-1.169-2.222c-0.601-0.608-1.37-1.024-2.209-1.195s-1.709-0.088-2.5 0.237-1.468 0.878-1.945 1.589c-0.476 0.711-0.731 1.547-0.731 2.402-0 1.136 0.448 2.226 1.246 3.034s1.883 1.268 3.019 1.281z"></path>
<path fill="#a9adb0" style="fill: var(--color5, #a9adb0)" d="M14.508 30.352c0.811 0.005 1.604-0.232 2.28-0.679s1.204-1.086 1.516-1.834c0.313-0.748 0.396-1.572 0.239-2.367s-0.546-1.526-1.119-2.1-1.303-0.964-2.099-1.121c-0.795-0.157-1.619-0.075-2.368 0.237s-1.387 0.839-1.835 1.515c-0.448 0.676-0.685 1.469-0.681 2.28-0 0.534 0.104 1.063 0.309 1.557s0.504 0.942 0.881 1.32 0.826 0.678 1.32 0.882c0.494 0.205 1.023 0.31 1.557 0.31v0z"></path>
<path fill="#919599" style="fill: var(--color6, #919599)" d="M11.587 23.328l6.081 6.061c-0.689 0.743-1.606 1.235-2.606 1.397l-4.82-4.786c0.125-1.011 0.594-1.948 1.328-2.655l0.017-0.017z"></path>
<path fill="#919599" style="fill: var(--color6, #919599)" d="M13.718 22.253l4.979 4.979c-0.061 0.358-0.167 0.707-0.315 1.039l-5.729-5.66c0.34-0.161 0.698-0.281 1.066-0.359v0z"></path>
<path fill="#b4b6b8" style="fill: var(--color7, #b4b6b8)" d="M11.623 23.372l5.766 5.703c-0.729 0.781-1.738 1.24-2.805 1.278l-4.106-4.149c0.007-1.055 0.416-2.068 1.145-2.831v0z"></path>
<path fill="#b4b6b8" style="fill: var(--color7, #b4b6b8)" d="M13.718 22.253l4.74 4.747c-0.081 0.353-0.187 0.7-0.315 1.039l-5.45-5.427c0.326-0.161 0.67-0.281 1.026-0.359v0z"></path>
<path fill="#fff" style="fill: var(--color2, #fff)" d="M16.523 22.532c0.513 0.27 0.97 0.636 1.344 1.079 0.756 0.914 1.124 2.088 1.026 3.27-0.094 1.174-0.647 2.263-1.54 3.031-0.443 0.381-0.958 0.671-1.514 0.852s-1.143 0.249-1.726 0.201c-0.58-0.047-1.144-0.209-1.66-0.478-0.508-0.271-0.959-0.637-1.328-1.079-0.344-0.465-0.623-0.974-0.83-1.514-0.164-0.57-0.23-1.164-0.196-1.756 0.094-1.174 0.647-2.263 1.54-3.031 0.457-0.372 0.979-0.657 1.54-0.84 0.549-0.169 1.123-0.236 1.696-0.199 0.58 0.047 1.144 0.209 1.66 0.478l-0.013-0.013zM18.418 25.247c-0.158-0.53-0.427-1.020-0.79-1.437-0.338-0.424-0.77-0.765-1.261-0.996-0.468-0.279-0.996-0.444-1.54-0.481-1.087-0.068-2.159 0.289-2.987 0.996-0.426 0.342-0.767 0.779-0.996 1.275-0.275 0.476-0.437 1.008-0.475 1.557-0.034 0.54 0.033 1.082 0.199 1.597 0.159 0.529 0.428 1.017 0.79 1.434 0.34 0.423 0.771 0.764 1.261 0.996 0.472 0.271 0.998 0.435 1.54 0.478 0.535 0.035 1.071-0.033 1.58-0.199 0.525-0.162 1.009-0.435 1.421-0.8 0.425-0.352 0.774-0.785 1.029-1.275 0.245-0.486 0.392-1.015 0.435-1.557 0.035-0.539-0.033-1.079-0.199-1.593l-0.007 0.007z"></path>
<path fill="#cdcfd1" style="fill: var(--color3, #cdcfd1)" d="M5.506 15.993c1.039 0.006 2.057-0.297 2.924-0.871s1.544-1.392 1.945-2.351c0.401-0.959 0.508-2.015 0.307-3.035s-0.7-1.957-1.434-2.693c-0.734-0.736-1.671-1.237-2.69-1.439s-2.076-0.098-3.036 0.301c-0.96 0.399-1.779 1.074-2.354 1.94s-0.88 1.883-0.876 2.922c-0.001 0.686 0.133 1.364 0.395 1.998s0.646 1.209 1.13 1.695c0.484 0.485 1.059 0.87 1.693 1.133s1.312 0.398 1.997 0.399v0z"></path>
<path fill="#84898f" style="fill: var(--color4, #84898f)" d="M5.506 15.073c1.144 0 2.242-0.455 3.051-1.264s1.264-1.907 1.264-3.051-0.455-2.242-1.264-3.051c-0.809-0.809-1.907-1.264-3.051-1.264s-2.242 0.455-3.051 1.264c-0.809 0.809-1.264 1.907-1.264 3.051s0.455 2.242 1.264 3.051c0.809 0.809 1.907 1.264 3.051 1.264v0z"></path>
<path fill="#a9adb0" style="fill: var(--color5, #a9adb0)" d="M5.506 14.595c0.807 0.008 1.598-0.224 2.272-0.667s1.202-1.075 1.516-1.819c0.314-0.743 0.4-1.563 0.247-2.355s-0.538-1.521-1.105-2.094c-0.568-0.573-1.293-0.964-2.084-1.124s-1.611-0.081-2.357 0.226-1.384 0.829-1.832 1.5c-0.449 0.67-0.688 1.459-0.687 2.266-0 1.072 0.423 2.101 1.178 2.862s1.78 1.194 2.852 1.204v0z"></path>
<path fill="#919599" style="fill: var(--color6, #919599)" d="M2.581 7.575l6.084 6.064c-0.668 0.77-1.597 1.267-2.609 1.394l-4.816-4.787c0.131-1.014 0.599-1.955 1.328-2.672h0.013z"></path>
<path fill="#919599" style="fill: var(--color6, #919599)" d="M4.716 6.539l4.979 4.946c-0.051 0.362-0.163 0.712-0.332 1.036l-5.706-5.663c0.336-0.165 0.695-0.277 1.066-0.332l-0.007 0.013z"></path>
<path fill="#b4b6b8" style="fill: var(--color7, #b4b6b8)" d="M2.661 7.654l5.726 5.716c-0.743 0.753-1.745 1.195-2.802 1.235l-4.109-4.106c-0.006-0.528 0.096-1.052 0.3-1.54s0.505-0.928 0.885-1.295v-0.010z"></path>
<path fill="#b4b6b8" style="fill: var(--color7, #b4b6b8)" d="M4.716 6.539l4.74 4.707c-0.068 0.357-0.18 0.705-0.332 1.036l-5.434-5.384c0.319-0.178 0.666-0.299 1.026-0.358v0z"></path>
<path fill="#fff" style="fill: var(--color2, #fff)" d="M7.52 6.778c0.509 0.284 0.96 0.663 1.328 1.115 0.374 0.446 0.656 0.962 0.83 1.517 0.356 1.122 0.257 2.339-0.275 3.389-0.265 0.517-0.628 0.978-1.069 1.358-0.428 0.392-0.942 0.679-1.5 0.836-0.559 0.186-1.15 0.254-1.736 0.199-0.58-0.047-1.144-0.21-1.66-0.478-0.501-0.28-0.95-0.644-1.328-1.075-0.361-0.455-0.642-0.968-0.83-1.517-0.167-0.57-0.234-1.164-0.199-1.756 0.042-0.572 0.204-1.128 0.475-1.633 0.277-0.521 0.636-0.993 1.065-1.397 0.468-0.355 0.988-0.637 1.54-0.836 0.55-0.166 1.126-0.234 1.7-0.199 0.572 0.085 1.13 0.246 1.66 0.478v0zM9.416 9.49c-0.166-0.522-0.431-1.008-0.78-1.431-0.332-0.416-0.75-0.755-1.225-0.996-0.488-0.26-1.028-0.41-1.58-0.438-0.532-0.066-1.072-0.011-1.58 0.159-0.521 0.17-1.004 0.441-1.421 0.797-0.415 0.354-0.754 0.789-0.996 1.278-0.253 0.485-0.413 1.013-0.471 1.557-0.034 0.552 0.032 1.105 0.196 1.633 0.161 0.517 0.43 0.993 0.79 1.397 0.337 0.437 0.77 0.791 1.265 1.036 0.481 0.242 1.004 0.391 1.54 0.438 0.535 0.057 1.076-0.011 1.58-0.199 0.522-0.148 1.007-0.406 1.421-0.757 0.406-0.37 0.752-0.801 1.026-1.278 0.499-0.99 0.585-2.137 0.239-3.19l-0.003-0.007z"></path>
<path fill="#cdcfd1" style="fill: var(--color3, #cdcfd1)" d="M23.433 15.993c1.041 0.015 2.063-0.281 2.935-0.85s1.556-1.383 1.964-2.342c0.408-0.958 0.521-2.016 0.325-3.039s-0.691-1.964-1.424-2.704c-0.732-0.74-1.669-1.245-2.689-1.451s-2.079-0.104-3.042 0.294c-0.962 0.398-1.784 1.073-2.361 1.94s-0.883 1.885-0.879 2.927c-0 1.377 0.543 2.697 1.511 3.676s2.284 1.535 3.66 1.549v0z"></path>
<path fill="#84898f" style="fill: var(--color4, #84898f)" d="M23.433 15.073c0.855 0.010 1.695-0.235 2.411-0.703s1.277-1.139 1.611-1.926c0.334-0.788 0.427-1.657 0.266-2.497s-0.568-1.614-1.169-2.222c-0.601-0.608-1.37-1.024-2.209-1.195s-1.709-0.088-2.5 0.237c-0.791 0.325-1.468 0.878-1.945 1.589s-0.731 1.547-0.731 2.402c-0.006 1.138 0.44 2.231 1.239 3.040s1.888 1.268 3.026 1.275v0z"></path>
<path fill="#a9adb0" style="fill: var(--color5, #a9adb0)" d="M23.433 14.595c0.807 0.009 1.598-0.223 2.273-0.665s1.203-1.075 1.518-1.818c0.315-0.743 0.401-1.563 0.249-2.355s-0.537-1.521-1.105-2.095c-0.568-0.573-1.293-0.965-2.084-1.125s-1.611-0.082-2.357 0.226c-0.746 0.307-1.384 0.829-1.833 1.5s-0.688 1.459-0.687 2.266c-0 1.072 0.423 2.1 1.177 2.861s1.778 1.194 2.85 1.205v0z"></path>
<path fill="#919599" style="fill: var(--color6, #919599)" d="M20.552 7.575l6.081 6.064c-0.69 0.767-1.632 1.262-2.655 1.394l-4.78-4.787c0.115-1.019 0.585-1.965 1.328-2.672h0.027z"></path>
<path fill="#919599" style="fill: var(--color6, #919599)" d="M22.643 6.539l5.015 4.946c-0.081 0.352-0.187 0.698-0.315 1.036l-5.726-5.663c0.32-0.17 0.667-0.282 1.026-0.332v0.013z"></path>
<path fill="#b4b6b8" style="fill: var(--color7, #b4b6b8)" d="M20.585 7.654l5.769 5.716c-0.743 0.753-1.745 1.195-2.802 1.235l-4.146-4.106c0.021-1.061 0.445-2.074 1.185-2.835l-0.007-0.010z"></path>
<path fill="#b4b6b8" style="fill: var(--color7, #b4b6b8)" d="M22.643 6.539l4.78 4.707c-0.078 0.358-0.197 0.705-0.355 1.036l-5.411-5.384c0.299-0.196 0.64-0.319 0.996-0.358h-0.010z"></path>
<path fill="#fff" style="fill: var(--color2, #fff)" d="M25.448 6.778c0.526 0.282 0.994 0.66 1.381 1.115 0.36 0.455 0.641 0.968 0.83 1.517 0.165 0.556 0.232 1.137 0.199 1.716-0.063 0.576-0.223 1.137-0.475 1.66-0.277 0.52-0.653 0.981-1.105 1.358-0.429 0.391-0.942 0.677-1.5 0.836-0.546 0.186-1.125 0.254-1.7 0.199-0.581-0.042-1.146-0.205-1.66-0.478-0.507-0.27-0.958-0.635-1.328-1.075-0.389-0.436-0.673-0.955-0.83-1.517-0.183-0.566-0.25-1.163-0.196-1.756 0.036-0.569 0.192-1.125 0.458-1.63 0.265-0.529 0.628-1.003 1.069-1.397 0.448-0.364 0.956-0.647 1.5-0.836 0.563-0.166 1.15-0.234 1.736-0.199 0.56 0.080 1.106 0.241 1.62 0.478v0.010zM27.383 9.49c-0.169-0.523-0.438-1.009-0.79-1.431-0.338-0.426-0.771-0.767-1.265-0.996-0.474-0.26-1-0.41-1.54-0.438-0.537-0.061-1.081-0.008-1.596 0.157s-0.989 0.437-1.391 0.799c-0.414 0.363-0.761 0.795-1.026 1.278-0.242 0.487-0.389 1.015-0.435 1.557-0.034 0.552 0.032 1.105 0.196 1.633 0.146 0.514 0.402 0.991 0.75 1.397 0.355 0.419 0.784 0.77 1.265 1.036 0.495 0.242 1.031 0.391 1.58 0.438 0.535 0.052 1.075-0.016 1.58-0.199 0.519-0.156 1.001-0.414 1.421-0.757 0.408-0.361 0.745-0.794 0.996-1.278 0.246-0.487 0.405-1.012 0.471-1.553 0.034-0.553-0.032-1.107-0.196-1.636l-0.020-0.007z"></path>
<path fill="#dedede" style="fill: var(--color8, #dedede)" d="M10.627 12.481l7.386 7.379c-0.739 0.706-1.676 1.169-2.685 1.328l-6.001-5.945c0.161-1.023 0.613-1.978 1.301-2.752v-0.010z"></path>
<path fill="#dedede" style="fill: var(--color8, #dedede)" d="M11.706 11.565l7.22 7.18c-0.199 0.279-0.395 0.558-0.594 0.797l-7.372-7.379c0.236-0.199 0.471-0.398 0.75-0.598h-0.003z"></path>
<path fill="#dedede" style="fill: var(--color8, #dedede)" d="M14.192 10.768l5.49 5.503c0 0.159-0.040 0.332-0.040 0.518l-5.975-5.975c0.156 0 0.315-0.040 0.511-0.040l0.013-0.007z"></path>
<path fill="#919599" style="fill: var(--color6, #919599)" d="M11.152 13.32l6.041 6.025c-0.761 0.613-1.708 0.951-2.685 0.959h-0.395l-3.87-3.831v-0.481c-0.004-0.962 0.317-1.898 0.909-2.655v-0.017z"></path>
<path fill="#919599" style="fill: var(--color6, #919599)" d="M12.177 12.374l5.925 5.905c-0.152 0.296-0.352 0.565-0.591 0.797l-6.084-6.061c0.231-0.235 0.482-0.449 0.75-0.641v0z"></path>
<path fill="#919599" style="fill: var(--color6, #919599)" d="M14.787 11.711l3.947 3.95c0 0.119 0.040 0.239 0.040 0.332 0.006 0.082-0.007 0.164-0.040 0.239l-4.501-4.521c0.087-0.035 0.182-0.049 0.276-0.040 0.095-0.007 0.19 0.007 0.279 0.040v0z"></path>
<path fill="#b4b6b8" style="fill: var(--color7, #b4b6b8)" d="M11.231 13.4l5.643 5.663c-0.689 0.504-1.517 0.782-2.37 0.797-0.336 0.003-0.67-0.037-0.996-0.119l-2.921-2.951c-0.081-0.339-0.121-0.687-0.12-1.036-0.001-0.843 0.261-1.666 0.75-2.353h0.013z"></path>
<path fill="#b4b6b8" style="fill: var(--color7, #b4b6b8)" d="M12.217 12.401l5.643 5.626c-0.189 0.27-0.402 0.523-0.634 0.757l-5.719-5.746c0.208-0.244 0.447-0.459 0.71-0.641v0.003z"></path>
<path fill="#b4b6b8" style="fill: var(--color7, #b4b6b8)" d="M14.787 11.711l3.711 3.711c0.032 0.108 0.045 0.22 0.040 0.332 0.006 0.082-0.007 0.164-0.040 0.239l-4.265-4.282c0.087-0.035 0.182-0.049 0.276-0.040 0.095-0.007 0.19 0.007 0.279 0.040v0z"></path>
<path fill="#fff" style="fill: var(--color2, #fff)" d="M16.483 12.082c1.033 0.541 1.812 1.467 2.167 2.578s0.257 2.317-0.271 3.357c-0.537 1.037-1.458 1.823-2.566 2.191-1.107 0.332-2.3 0.213-3.319-0.332-0.514-0.259-0.972-0.618-1.345-1.056s-0.655-0.947-0.829-1.496c-0.328-1.116-0.215-2.315 0.315-3.349 0.254-0.516 0.609-0.976 1.043-1.352s0.94-0.663 1.486-0.842c1.1-0.347 2.293-0.247 3.319 0.279v0.023zM18.497 14.715c-0.359-1.060-1.107-1.945-2.095-2.473-0.989-0.505-2.135-0.605-3.197-0.279-1.056 0.368-1.932 1.124-2.45 2.114-0.493 1.001-0.58 2.154-0.241 3.217s1.076 1.954 2.057 2.485c0.489 0.255 1.025 0.408 1.575 0.449s1.103-0.030 1.625-0.21c0.524-0.167 1.011-0.436 1.431-0.792s0.766-0.79 1.019-1.28c0.499-1.004 0.597-2.159 0.276-3.233v0z"></path>
<path fill="#ffc800" style="fill: var(--color9, #ffc800)" d="M14.508 10.768c1.039 0.008 2.057-0.293 2.925-0.864s1.547-1.387 1.951-2.344c0.404-0.957 0.514-2.013 0.318-3.033s-0.692-1.959-1.422-2.698c-0.731-0.739-1.664-1.244-2.682-1.451s-2.075-0.108-3.036 0.285c-0.962 0.393-1.785 1.063-2.365 1.925s-0.892 1.876-0.895 2.915c-0.005 0.688 0.126 1.371 0.386 2.008s0.642 1.217 1.127 1.706c0.484 0.489 1.060 0.878 1.695 1.144s1.316 0.404 2.004 0.406h-0.003z"></path>
<path fill="#f59a17" style="fill: var(--color10, #f59a17)" d="M14.508 9.809c0.855 0.010 1.695-0.235 2.411-0.703s1.277-1.139 1.611-1.926 0.427-1.657 0.266-2.497c-0.161-0.84-0.568-1.614-1.169-2.222s-1.37-1.024-2.209-1.195c-0.838-0.171-1.709-0.088-2.5 0.237s-1.468 0.878-1.945 1.589-0.731 1.547-0.731 2.402c-0.005 1.137 0.441 2.231 1.24 3.040s1.887 1.268 3.025 1.276v0z"></path>
<path fill="#ffae00" style="fill: var(--color11, #ffae00)" d="M14.508 9.331c0.805 0.001 1.592-0.237 2.262-0.684s1.192-1.082 1.5-1.826c0.308-0.744 0.39-1.562 0.233-2.351s-0.544-1.515-1.113-2.085c-0.569-0.569-1.294-0.957-2.084-1.115s-1.608-0.077-2.352 0.231c-0.744 0.308-1.38 0.829-1.827 1.499s-0.686 1.456-0.686 2.261c-0.004 0.535 0.098 1.066 0.301 1.561s0.502 0.945 0.881 1.324c0.378 0.379 0.828 0.678 1.323 0.882s1.026 0.306 1.561 0.303v0z"></path>
<path fill="#ffae00" style="fill: var(--color11, #ffae00)" d="M11.587 2.35l6.081 6.041c-0.667 0.771-1.595 1.267-2.606 1.394l-4.82-4.747c0.123-1.016 0.592-1.96 1.328-2.672l0.017-0.017z"></path>
<path fill="#ffae00" style="fill: var(--color11, #ffae00)" d="M13.718 1.275l4.979 4.979c-0.061 0.357-0.167 0.705-0.315 1.036l-5.729-5.656c0.34-0.161 0.698-0.281 1.066-0.359v0z"></path>
<path fill="#fcb80d" style="fill: var(--color12, #fcb80d)" d="M11.623 2.39l5.766 5.706c-0.357 0.388-0.791 0.697-1.274 0.91s-1.004 0.323-1.531 0.325l-4.106-4.109c-0.007-1.058 0.404-2.076 1.145-2.831v0z"></path>
<path fill="#fcb80d" style="fill: var(--color12, #fcb80d)" d="M13.718 1.275l4.74 4.747c-0.081 0.352-0.187 0.698-0.315 1.036l-5.45-5.424c0.326-0.161 0.67-0.281 1.026-0.359v0z"></path>
<path fill="#ffeba3" style="fill: var(--color13, #ffeba3)" d="M16.523 1.553c0.514 0.268 0.97 0.633 1.344 1.075 0.374 0.445 0.655 0.961 0.826 1.517 0.167 0.57 0.234 1.164 0.199 1.756-0.049 0.579-0.21 1.142-0.475 1.66-0.273 0.511-0.634 0.971-1.066 1.358-0.459 0.347-0.964 0.628-1.5 0.836-0.564 0.166-1.152 0.234-1.739 0.199-0.58-0.047-1.144-0.209-1.66-0.478-0.499-0.282-0.948-0.646-1.328-1.075-0.352-0.475-0.632-1-0.83-1.557-0.166-0.556-0.232-1.137-0.196-1.716 0.095-1.173 0.649-2.262 1.54-3.031 0.458-0.37 0.98-0.654 1.54-0.836 0.549-0.169 1.123-0.236 1.696-0.199 0.58 0.047 1.144 0.209 1.66 0.478l-0.013 0.013zM18.418 4.265c-0.159-0.529-0.429-1.019-0.79-1.437-0.348-0.426-0.776-0.778-1.261-1.036-0.479-0.247-1.003-0.396-1.54-0.438-0.535-0.035-1.071 0.033-1.58 0.199-0.513 0.172-0.994 0.428-1.424 0.757-0.408 0.361-0.746 0.794-0.996 1.278-0.27 0.491-0.432 1.034-0.475 1.593-0.032 0.54 0.035 1.081 0.199 1.597 0.168 0.526 0.437 1.014 0.79 1.437 0.339 0.424 0.77 0.765 1.261 0.996 0.472 0.271 0.998 0.435 1.54 0.478 0.535 0.035 1.071-0.033 1.58-0.199 0.525-0.161 1.009-0.433 1.421-0.797 0.425-0.353 0.775-0.787 1.029-1.278 0.24-0.486 0.387-1.013 0.435-1.553 0.038-0.54-0.030-1.082-0.199-1.597h0.010z"></path>
<path fill="#ffc800" style="fill: var(--color9, #ffc800)" d="M23.433 26.482c1.041 0.014 2.063-0.281 2.935-0.85s1.556-1.383 1.964-2.342 0.521-2.016 0.325-3.039c-0.196-1.023-0.691-1.964-1.424-2.704s-1.669-1.245-2.689-1.451c-1.021-0.206-2.079-0.104-3.042 0.294s-1.784 1.073-2.361 1.94c-0.577 0.867-0.883 1.885-0.879 2.927-0 1.377 0.543 2.697 1.511 3.676s2.284 1.535 3.66 1.549v0z"></path>
<path fill="#f59a17" style="fill: var(--color10, #f59a17)" d="M23.433 25.566c0.855 0.010 1.695-0.235 2.411-0.703s1.277-1.139 1.611-1.926c0.334-0.788 0.427-1.657 0.266-2.497s-0.568-1.614-1.169-2.222c-0.601-0.608-1.37-1.024-2.209-1.195s-1.709-0.088-2.5 0.237c-0.791 0.325-1.468 0.878-1.945 1.589s-0.731 1.547-0.731 2.402c-0.005 1.137 0.441 2.231 1.24 3.040s1.887 1.268 3.025 1.276v0z"></path>
<path fill="#ffae00" style="fill: var(--color11, #ffae00)" d="M23.433 25.084c0.806 0.009 1.597-0.223 2.271-0.664s1.203-1.073 1.518-1.816 0.402-1.561 0.251-2.353c-0.151-0.792-0.534-1.521-1.101-2.095s-1.29-0.967-2.080-1.128c-0.79-0.162-1.61-0.085-2.356 0.22s-1.385 0.825-1.835 1.494c-0.45 0.669-0.692 1.456-0.694 2.263-0.003 0.532 0.098 1.059 0.299 1.551s0.496 0.94 0.87 1.318 0.819 0.678 1.309 0.883c0.49 0.205 1.016 0.312 1.548 0.314v0.013z"></path>
<path fill="#ffae00" style="fill: var(--color11, #ffae00)" d="M20.552 18.107l6.081 6.021c-0.679 0.782-1.627 1.28-2.655 1.397l-4.78-4.747c0.111-1.020 0.581-1.968 1.328-2.672h0.027z"></path>
<path fill="#ffae00" style="fill: var(--color11, #ffae00)" d="M22.643 17.022l5.015 4.946c-0.080 0.358-0.196 0.717-0.315 1.079l-5.726-5.693c0.32-0.17 0.667-0.282 1.026-0.332v0z"></path>
<path fill="#fcb80d" style="fill: var(--color12, #fcb80d)" d="M20.585 18.147l5.762 5.703c-0.743 0.753-1.745 1.195-2.802 1.235l-4.146-4.106c0.021-1.060 0.445-2.072 1.185-2.831v0z"></path>
<path fill="#fcb80d" style="fill: var(--color12, #fcb80d)" d="M22.683 17.022l4.74 4.713c-0.078 0.359-0.197 0.707-0.355 1.039l-5.411-5.387c0.323-0.167 0.669-0.288 1.026-0.358v-0.007z"></path>
<path fill="#ffeba3" style="fill: var(--color13, #ffeba3)" d="M25.448 17.307c0.524 0.269 0.993 0.635 1.381 1.079 0.361 0.453 0.642 0.965 0.83 1.514 0.162 0.557 0.23 1.137 0.199 1.716-0.045 0.58-0.206 1.144-0.475 1.66-0.267 0.515-0.628 0.974-1.066 1.354-0.449 0.385-0.974 0.671-1.54 0.84-0.542 0.205-1.125 0.273-1.7 0.199-0.58-0.047-1.145-0.211-1.66-0.481-0.507-0.27-0.958-0.635-1.328-1.075-0.39-0.435-0.673-0.954-0.83-1.517-0.181-0.552-0.247-1.134-0.196-1.713 0.044-0.582 0.203-1.149 0.468-1.669s0.629-0.983 1.073-1.362c0.444-0.379 0.958-0.666 1.514-0.844s1.141-0.245 1.722-0.195c0.568 0.042 1.12 0.205 1.62 0.478l-0.013 0.017zM27.383 19.962c-0.169-0.524-0.437-1.011-0.79-1.434-0.339-0.425-0.772-0.766-1.265-0.996-0.481-0.242-1.004-0.391-1.54-0.438-0.545-0.048-1.094 0.006-1.62 0.159-0.513 0.162-0.985 0.436-1.381 0.8-0.415 0.361-0.762 0.792-1.026 1.275-0.498 0.99-0.584 2.137-0.239 3.19 0.17 0.517 0.423 1.002 0.75 1.437 0.367 0.396 0.794 0.732 1.265 0.996 0.495 0.243 1.031 0.393 1.58 0.441 0.532 0.046 1.068-0.008 1.58-0.159 0.513-0.189 0.993-0.459 1.421-0.8 0.407-0.36 0.744-0.793 0.996-1.275 0.245-0.488 0.405-1.015 0.471-1.557 0.034-0.553-0.032-1.107-0.196-1.636l-0.007-0.003z"></path>
<path fill="#ffc800" style="fill: var(--color9, #ffc800)" d="M5.506 26.482c1.039 0.006 2.057-0.297 2.924-0.871s1.544-1.392 1.945-2.351 0.508-2.015 0.307-3.035c-0.201-1.020-0.7-1.957-1.434-2.693s-1.671-1.237-2.69-1.439-2.076-0.098-3.036 0.302c-0.96 0.399-1.779 1.074-2.354 1.94s-0.88 1.883-0.876 2.922c-0.001 0.686 0.133 1.364 0.395 1.998s0.646 1.209 1.13 1.695 1.059 0.87 1.693 1.133c0.633 0.263 1.312 0.398 1.997 0.399z"></path>
<path fill="#f59a17" style="fill: var(--color10, #f59a17)" d="M5.506 25.566c1.144 0 2.242-0.455 3.051-1.264s1.264-1.907 1.264-3.051c0-1.144-0.455-2.242-1.264-3.051s-1.907-1.264-3.051-1.264-2.242 0.455-3.051 1.264c-0.809 0.809-1.264 1.907-1.264 3.051s0.455 2.242 1.264 3.051c0.809 0.809 1.907 1.264 3.051 1.264z"></path>
<path fill="#ffae00" style="fill: var(--color11, #ffae00)" d="M5.506 25.084c0.806 0.008 1.596-0.224 2.271-0.666s1.202-1.074 1.516-1.816c0.314-0.742 0.401-1.561 0.25-2.353s-0.535-1.521-1.102-2.094c-0.566-0.574-1.291-0.966-2.080-1.127s-1.61-0.085-2.356 0.221c-0.746 0.305-1.385 0.825-1.835 1.494s-0.692 1.456-0.694 2.262c-0.001 1.072 0.422 2.102 1.177 2.863s1.78 1.194 2.853 1.203v0.013z"></path>
<path fill="#ffae00" style="fill: var(--color11, #ffae00)" d="M2.581 18.107l6.084 6.021c-0.668 0.771-1.597 1.269-2.609 1.397l-4.816-4.747c0.113-1.020 0.583-1.966 1.328-2.672h0.013z"></path>
<path fill="#ffae00" style="fill: var(--color11, #ffae00)" d="M4.716 17.022l4.979 4.946c-0.057 0.374-0.169 0.738-0.332 1.079l-5.706-5.693c0.336-0.165 0.695-0.277 1.066-0.332h-0.007z"></path>
<path fill="#fcb80d" style="fill: var(--color12, #fcb80d)" d="M2.661 18.147l5.726 5.703c-0.743 0.753-1.745 1.195-2.802 1.235l-4.109-4.106c-0.006-0.528 0.095-1.051 0.299-1.538s0.505-0.927 0.886-1.293v0z"></path>
<path fill="#fcb80d" style="fill: var(--color12, #fcb80d)" d="M4.716 17.022l4.74 4.707c-0.069 0.358-0.18 0.707-0.332 1.039l-5.434-5.381c0.326-0.161 0.67-0.281 1.026-0.358v-0.007z"></path>
<path fill="#ffeba3" style="fill: var(--color13, #ffeba3)" d="M7.521 17.307c0.508 0.271 0.958 0.637 1.328 1.079 0.389 0.434 0.673 0.952 0.83 1.514 0.18 0.553 0.247 1.137 0.196 1.716-0.042 0.58-0.202 1.145-0.471 1.66-0.256 0.522-0.62 0.984-1.069 1.354-0.428 0.393-0.941 0.681-1.5 0.84-0.554 0.206-1.15 0.274-1.736 0.199-0.58-0.047-1.145-0.211-1.66-0.481-0.774-0.409-1.411-1.035-1.832-1.802s-0.608-1.641-0.538-2.513c0.039-0.581 0.201-1.146 0.475-1.66 0.267-0.515 0.628-0.974 1.065-1.354 0.448-0.386 0.973-0.673 1.54-0.84 0.541-0.205 1.125-0.274 1.7-0.199 0.579 0.048 1.144 0.21 1.66 0.478l0.013 0.010zM9.416 19.962c-0.171-0.515-0.424-1-0.75-1.434-0.357-0.407-0.785-0.745-1.265-0.996-0.495-0.242-1.031-0.391-1.58-0.438-0.532-0.046-1.068 0.008-1.58 0.159-0.522 0.17-1.005 0.442-1.421 0.8-0.416 0.352-0.755 0.786-0.996 1.275-0.247 0.487-0.407 1.014-0.471 1.557-0.034 0.552 0.032 1.105 0.196 1.633 0.168 0.526 0.436 1.014 0.79 1.437 0.35 0.414 0.78 0.753 1.265 0.996 0.481 0.243 1.003 0.393 1.54 0.441 0.538 0.062 1.082 0.008 1.597-0.157s0.989-0.439 1.39-0.802c0.405-0.37 0.751-0.8 1.026-1.275 0.499-0.991 0.585-2.139 0.239-3.193l0.020-0.003z"></path>
<path fill="#cdcfd1" style="fill: var(--color3, #cdcfd1)" d="M14.508 21.257c1.038 0.007 2.055-0.294 2.922-0.865s1.545-1.386 1.948-2.343c0.403-0.956 0.513-2.011 0.317-3.030s-0.691-1.957-1.421-2.695c-0.73-0.738-1.663-1.243-2.68-1.45s-2.073-0.109-3.034 0.284c-0.961 0.393-1.783 1.062-2.364 1.922s-0.892 1.874-0.896 2.912c-0.005 0.688 0.126 1.371 0.386 2.008s0.642 1.217 1.127 1.706c0.484 0.489 1.060 0.878 1.695 1.144s1.316 0.404 2.004 0.406h-0.003z"></path>
<path fill="#84898f" style="fill: var(--color4, #84898f)" d="M14.508 20.301c0.855 0.010 1.695-0.235 2.411-0.703s1.277-1.139 1.611-1.926 0.427-1.657 0.266-2.497c-0.161-0.84-0.568-1.614-1.169-2.222s-1.37-1.024-2.209-1.195c-0.838-0.171-1.709-0.088-2.5 0.237s-1.468 0.878-1.945 1.589-0.731 1.547-0.731 2.402c-0.005 1.137 0.441 2.231 1.24 3.040s1.887 1.268 3.025 1.276z"></path>
<path fill="#a9adb0" style="fill: var(--color5, #a9adb0)" d="M14.508 19.86c0.809 0.005 1.601-0.231 2.276-0.677s1.203-1.082 1.517-1.828c0.314-0.746 0.399-1.568 0.245-2.362s-0.54-1.525-1.109-2.1c-0.569-0.575-1.296-0.968-2.089-1.13s-1.616-0.084-2.365 0.222c-0.749 0.306-1.39 0.828-1.842 1.499s-0.696 1.461-0.699 2.27c-0.004 0.537 0.098 1.070 0.3 1.567s0.501 0.95 0.879 1.332c0.378 0.382 0.828 0.685 1.323 0.892s1.027 0.314 1.564 0.315z"></path>
<path fill="#919599" style="fill: var(--color6, #919599)" d="M11.587 12.839l6.081 6.025c-0.675 0.767-1.596 1.276-2.606 1.437l-4.82-4.787c0.123-1.018 0.591-1.962 1.328-2.675h0.017z"></path>
<path fill="#919599" style="fill: var(--color6, #919599)" d="M13.718 11.764l4.979 4.979c-0.061 0.357-0.167 0.705-0.315 1.036l-5.729-5.656c0.34-0.161 0.698-0.281 1.066-0.358v0z"></path>
<path fill="#b4b6b8" style="fill: var(--color7, #b4b6b8)" d="M11.623 12.882l5.766 5.703c-0.357 0.388-0.791 0.697-1.274 0.91s-1.004 0.323-1.531 0.325l-4.106-4.106c-0.001-1.057 0.41-2.072 1.145-2.831v0z"></path>
<path fill="#b4b6b8" style="fill: var(--color7, #b4b6b8)" d="M13.718 11.764l4.74 4.747c-0.081 0.352-0.187 0.698-0.315 1.036l-5.45-5.424c0.326-0.161 0.67-0.281 1.026-0.358v0z"></path>
<path fill="#fff" style="fill: var(--color2, #fff)" d="M16.523 12.043c0.515 0.268 0.971 0.634 1.344 1.079 0.367 0.449 0.647 0.962 0.826 1.514 0.166 0.57 0.234 1.164 0.199 1.756-0.050 0.579-0.211 1.142-0.475 1.66-0.264 0.516-0.626 0.976-1.066 1.354-0.459 0.347-0.964 0.628-1.5 0.836-0.563 0.169-1.152 0.238-1.739 0.202-0.58-0.048-1.144-0.212-1.66-0.481-0.508-0.269-0.959-0.635-1.328-1.075-0.351-0.467-0.631-0.984-0.83-1.534-0.166-0.555-0.232-1.135-0.196-1.713 0.046-0.585 0.207-1.155 0.475-1.676 0.265-0.517 0.626-0.978 1.066-1.358 0.458-0.37 0.98-0.654 1.54-0.836 0.549-0.169 1.123-0.236 1.696-0.199 0.58 0.047 1.144 0.209 1.66 0.478l-0.013-0.007zM18.418 14.754c-0.159-0.529-0.428-1.017-0.79-1.434-0.347-0.427-0.776-0.78-1.261-1.039-0.479-0.247-1.003-0.396-1.54-0.438-1.087-0.066-2.158 0.29-2.987 0.996-0.415 0.338-0.755 0.76-0.996 1.238-0.271 0.492-0.432 1.037-0.475 1.597-0.067 1.1 0.289 2.185 0.996 3.031 0.338 0.424 0.77 0.765 1.261 0.996 0.472 0.271 0.998 0.435 1.54 0.478 0.535 0.035 1.071-0.033 1.58-0.199 0.525-0.161 1.009-0.433 1.421-0.797 0.425-0.352 0.774-0.785 1.029-1.275 0.239-0.488 0.387-1.016 0.435-1.557 0.034-0.54-0.033-1.082-0.199-1.597h-0.013z"></path>
</symbol>
<symbol id="icon-chesspuzzgrin" viewBox="0 0 24 32">
<path fill="#609603" style="fill: var(--color14, #609603)" d="M12.545 4.312c0.22 0.069 0.432 0.162 0.631 0.279 0.218 0.075 0.428 0.169 0.631 0.279l0.279-0.558c-0.127-0.050-0.246-0.117-0.355-0.199-0.12-0.040-0.239-0.119-0.395-0.159-0.061-0.049-0.128-0.089-0.199-0.119h-0.040c0.239-0.598 0.475-1.158 0.71-1.796 0.239 0.119 0.475 0.239 0.75 0.358s0.514 0.279 0.79 0.438c0.404 0.202 0.788 0.443 1.145 0.72-0.471 0.717-0.906 1.434-1.381 2.154 0.159 0.12 0.355 0.279 0.554 0.438s0.315 0.279 0.511 0.438l0.435-0.478c-0.040 0-0.040-0.040-0.080-0.040-0.107-0.122-0.226-0.234-0.355-0.332-0.136-0.131-0.281-0.252-0.435-0.362 0.395-0.518 0.75-1.036 1.145-1.553 0.080 0.080 0.199 0.159 0.279 0.239 0.236 0.199 0.471 0.398 0.71 0.637l0.040 0.040c0.107 0.122 0.226 0.234 0.355 0.332l0.83 0.959-0.475 0.398-1.421 1.275c0.134 0.194 0.278 0.382 0.431 0.561 0.119 0.199 0.239 0.398 0.355 0.598l0.554-0.358-0.040-0.040c-0.108-0.227-0.24-0.442-0.395-0.641v0c-0.049-0.045-0.090-0.099-0.119-0.159l-0.037-0.040-0.040-0.040c0.471-0.398 0.996-0.797 1.5-1.155 0.285 0.356 0.548 0.729 0.79 1.115 0.236 0.398 0.435 0.84 0.664 1.238 0.047 0.108 0.087 0.219 0.119 0.332-0.75 0.358-1.5 0.717-2.25 1.115 0.107 0.215 0.199 0.437 0.276 0.664 0.083 0.206 0.149 0.42 0.196 0.637l0.634-0.199c-0.047-0.108-0.087-0.219-0.119-0.332v0-0.040c-0.060-0.13-0.113-0.263-0.159-0.398v0c-0.045-0.108-0.084-0.219-0.116-0.332 0.591-0.239 1.145-0.438 1.736-0.717 0.033 0.113 0.073 0.224 0.12 0.332v0c0.185 0.439 0.331 0.893 0.435 1.358 0.116 0.438 0.236 0.916 0.332 1.354-0.83 0.159-1.62 0.332-2.45 0.481 0.046 0.236 0.073 0.476 0.080 0.717 0.040 0.239 0.040 0.438 0.080 0.664h0.591v-0.438c-0.040-0.239-0.040-0.478-0.080-0.717l1.859-0.239c0 0.12 0.040 0.239 0.040 0.358 0.030 0.22 0.042 0.442 0.037 0.664 0.034 0.304 0.047 0.61 0.040 0.916v1.039h-2.576v1.633h0.79v-1.115h1.776v2.845h-2.566v1.636h0.79v-1.158h1.776v2.845h-4.259l0.239-0.597h3.436v-1.633h-0.594v1.155h-1.972v-2.831h2.566v-1.663h-0.594v1.158h-1.972v-2.835h2.526v-0.438c0.007-0.319-0.007-0.638-0.040-0.956v-0.239l-0.591 0.080v0.435c0.034 0.251 0.047 0.504 0.040 0.757-0.634 0-1.265 0.040-1.899 0.040l-0.037-0.478c0.007-0.279-0.007-0.559-0.040-0.836-0.040-0.279-0.080-0.558-0.119-0.88l-0.080-0.398 2.45-0.478c-0.040-0.239-0.119-0.438-0.159-0.637v-0.040c-0.093-0.326-0.204-0.646-0.332-0.959l-0.554 0.242c0.022 0.021 0.036 0.049 0.040 0.080v0.080c0.080 0.199 0.159 0.438 0.239 0.664 0.040 0.080 0.040 0.199 0.080 0.332-0.634 0.159-1.225 0.358-1.819 0.518l-0.116-0.438c-0.111-0.259-0.204-0.525-0.279-0.797-0.076-0.199-0.196-0.438-0.276-0.664l-0.236-0.478 2.211-1.155c-0.080-0.159-0.159-0.332-0.236-0.438-0.010-0.060-0.038-0.115-0.080-0.159-0.156-0.289-0.328-0.569-0.515-0.84l-0.514 0.359h0.040v0.040c0 0.040 0.040 0.080 0.080 0.12l0.355 0.601c0.068 0.084 0.122 0.178 0.159 0.279-0.515 0.332-1.066 0.664-1.62 0.996l-0.196-0.358c-0.159-0.239-0.332-0.478-0.475-0.717s-0.332-0.438-0.475-0.641l-0.355-0.358 1.895-1.713c-0.119-0.119-0.199-0.239-0.332-0.358-0.122-0.13-0.254-0.251-0.395-0.362-0.148-0.157-0.307-0.303-0.475-0.438l-0.395 0.478c0.126 0.083 0.245 0.176 0.355 0.279 0.181 0.178 0.353 0.365 0.515 0.561-0.435 0.438-0.87 0.916-1.305 1.394l-0.332-0.332c-0.191-0.206-0.402-0.393-0.631-0.558-0.212-0.185-0.433-0.358-0.664-0.518l-0.355-0.239 1.384-2.114c-0.279-0.199-0.554-0.358-0.83-0.518-0.199-0.119-0.395-0.202-0.594-0.332l-0.236 0.561 0.080 0.080c0.229 0.094 0.451 0.205 0.664 0.332 0.083 0.067 0.176 0.121 0.276 0.159l-0.906 1.716-0.435-0.202c-0.208-0.142-0.431-0.262-0.664-0.359-0.23-0.109-0.467-0.203-0.71-0.279l-0.475-0.199 0.79-2.433c-0.199-0.040-0.435-0.119-0.634-0.159l-0.946-0.239-0.080 0.637c0.372 0.061 0.741 0.14 1.105 0.239l-0.080 0.332-0.355 1.597-0.471-0.12c-0.313-0.072-0.63-0.125-0.949-0.159l-0.199-0.717c0.386 0.047 0.769 0.113 1.148 0.199l0.156-0.637h-0.080c-0.218-0.056-0.44-0.096-0.664-0.119v0c-0.119-0.043-0.196-0.043-0.332-0.083h-0.040c0.080-0.637 0.196-1.235 0.276-1.872 0.322 0.014 0.641 0.068 0.949 0.159l0.71 0.119c0.435 0.159 0.87 0.279 1.304 0.438-0.279 0.797-0.554 1.597-0.83 2.433l0.043-0.017z"></path>
<path fill="#7dbd0d" style="fill: var(--color15, #7dbd0d)" d="M10.255 4.511l0.076 0.398c4.584 0.664 7.966 4.667 8.136 9.334v7.020c0.016 0.525-0.136 1.042-0.435 1.474-0.179 0.23-0.406 0.417-0.665 0.548s-0.545 0.204-0.835 0.212h-9.517c-0.297-0.004-0.59-0.074-0.856-0.206s-0.5-0.321-0.684-0.555c0-0.040-0.040-0.040-0.040-0.080-0.321-0.468-0.487-1.026-0.475-1.593-0-0.396 0.080-0.788 0.236-1.151s0.385-0.691 0.673-0.963c0-0.040 0-0.040 0.040-0.040 1.54-1.397 3.555-2.473 4.026-5.384 0.279-0.127 0.524-0.319 0.714-0.561 0.262-0.26 0.467-0.571 0.603-0.913s0.2-0.71 0.187-1.078h-0.435c0.014 0.313-0.035 0.626-0.144 0.92s-0.275 0.564-0.49 0.792c-0.164 0.142-0.334 0.277-0.511 0.402-0.462 0.226-0.976 0.326-1.489 0.291s-1.008-0.206-1.435-0.493c-0.815 0.247-1.543 0.718-2.102 1.361s-0.924 1.429-1.055 2.27l-1.62-0.199-1.7-2.324 4.030-7.339 0.080-0.199 2.486-1.437 0.75-4.747c0.467 0.044 0.906 0.246 1.243 0.572s0.553 0.758 0.612 1.224v0l0.332 1.397c0.074 0.35 0.167 0.696 0.279 1.036l-0.017 0.010z"></path>
<path fill="#8dd117" style="fill: var(--color16, #8dd117)" d="M2.159 16.318l-1.7-2.324 4.030-7.339 0.080-0.199c2.526 3.389-1.975 4.906-2.41 9.852v0.010z"></path>
<path fill="#8dd117" style="fill: var(--color16, #8dd117)" d="M10.215 23.498h-3.2c-0.297-0.004-0.59-0.074-0.856-0.206s-0.5-0.321-0.684-0.555c0-0.040-0.040-0.040-0.040-0.080-0.321-0.468-0.487-1.026-0.475-1.593-0-0.396 0.080-0.788 0.236-1.151s0.385-0.691 0.673-0.963c0-0.040 0-0.040 0.040-0.040 1.54-1.397 3.555-2.473 4.026-5.384 0.28-0.127 0.524-0.319 0.714-0.561 0.262-0.26 0.467-0.571 0.603-0.913s0.2-0.71 0.187-1.078c1.026 2.592 0.71 7.18 0.71 9.931v0.358c0 0.199-0.040 0.358-0.040 0.518-0.11 0.535-0.403 1.016-0.83 1.358-0.313 0.219-0.683 0.344-1.066 0.359v0z"></path>
<path fill="#5a8c03" style="fill: var(--color17, #5a8c03)" d="M18.072 22.698c-0.12 0.182-0.252 0.356-0.395 0.521-0.134 0.154-0.204 0.354-0.196 0.558v0c0.010 0.225 0.098 0.44 0.25 0.608s0.357 0.276 0.58 0.309h-13.111c0.22-0.047 0.418-0.166 0.562-0.34s0.224-0.391 0.228-0.616v0c0-0.215-0.070-0.425-0.199-0.598v0c-0.12-0.126-0.231-0.26-0.332-0.402 0.184 0.234 0.417 0.423 0.684 0.555s0.559 0.202 0.856 0.206h9.517c0.302-0.002 0.598-0.076 0.866-0.215s0.499-0.339 0.674-0.585h0.017z"></path>
<path fill="#609603" style="fill: var(--color14, #609603)" d="M20.655 26.966h1.816c0.289 0.010 0.562 0.132 0.762 0.341s0.308 0.488 0.304 0.777v3.731h-0.591v-2.655h-1.593v0.836h1.105v1.836h-2.725v-2.655h-1.62v0.836h1.145v1.836h-2.765v-2.655h-1.577v0.836h1.092v1.836h-2.725v-2.655h-1.59v0.836h1.145v1.836h-2.765v-2.655h-1.58v0.836h1.105v1.836h-2.722v-2.655h-1.58v0.836h1.085v1.836h-2.765v-2.655h-1.58v0.837h1.145v1.796h-2.775v-3.791c-0.005-0.289 0.105-0.569 0.305-0.778s0.474-0.332 0.764-0.34l19.179-0.017zM21.365 30.598h-0.594v-1.437h-0.475v2.075h1.62v-0.637h-0.551zM14.929 30.598h-0.594v-1.437h-0.435v2.075h1.58v-0.637h-0.551zM18.125 30.598h-0.551v-1.437h-0.475v2.075h1.563v-0.637h-0.538zM8.499 30.598h-0.591v-1.437h-0.435v2.075h1.563v-0.637h-0.538zM11.699 30.598h-0.554v-1.437h-0.471v2.075h1.58v-0.637h-0.554zM2.073 30.598h-0.591v-1.437h-0.475v2.075h1.62v-0.637h-0.554zM5.313 30.598h-0.594v-1.437h-0.475v2.075h1.58v-0.637h-0.511z"></path>
<path fill="#fefefe" style="fill: var(--color18, #fefefe)" d="M9.661 4.909c-0.643-0.081-1.293-0.081-1.935 0l0.475-3.907c0.949 0.332 1.026 2.114 1.461 3.907v0z"></path>
<path fill="#7dbd0d" style="fill: var(--color15, #7dbd0d)" d="M18.311 27.683h1.105c0.394-0.010 0.767-0.174 1.041-0.457s0.424-0.663 0.42-1.057v0c0.002-0.193-0.035-0.385-0.107-0.563s-0.18-0.342-0.316-0.479c-0.136-0.137-0.297-0.246-0.475-0.321s-0.369-0.113-0.562-0.114h-15.322c-0.192 0.001-0.382 0.040-0.559 0.115s-0.337 0.185-0.47 0.323c-0.086 0.062-0.153 0.146-0.196 0.242v0c-0.162 0.233-0.244 0.513-0.236 0.797-0.009 0.284 0.074 0.563 0.236 0.797v0c0.040 0.080 0.119 0.159 0.159 0.239l0.037 0.040c0.276 0.27 0.643 0.427 1.029 0.438h14.217z"></path>
<path fill="#68a303" style="fill: var(--color19, #68a303)" d="M8.121 24.693h-2.921c0.22-0.047 0.418-0.166 0.562-0.34s0.224-0.391 0.228-0.616c0-0.215-0.070-0.425-0.199-0.598v0c-0.12-0.126-0.231-0.26-0.332-0.402 0.184 0.234 0.417 0.423 0.684 0.555s0.559 0.202 0.856 0.206h3.24c0.156 0.004 0.305 0.069 0.415 0.18s0.173 0.261 0.175 0.417c-0.002 0.157-0.065 0.306-0.175 0.417s-0.259 0.176-0.415 0.18h-2.118z"></path>
<path fill="#8dd117" style="fill: var(--color16, #8dd117)" d="M4.489 25.011h2.655c0.257 0.008 0.501 0.117 0.678 0.303s0.274 0.435 0.268 0.692v0c-0.003 0.251-0.103 0.491-0.279 0.67s-0.416 0.281-0.667 0.286h-2.655c-0.252-0.004-0.492-0.107-0.669-0.285s-0.278-0.419-0.28-0.671v0c-0-0.256 0.098-0.503 0.275-0.688s0.418-0.296 0.674-0.308v0z"></path>
<path fill="#fefefe" style="fill: var(--color18, #fefefe)" d="M6.859 8.063c0.099 0 0.194-0.037 0.267-0.104s0.117-0.159 0.125-0.258c-0.006-0.103-0.049-0.199-0.121-0.273s-0.168-0.118-0.271-0.126c-0.099 0.008-0.191 0.054-0.258 0.128s-0.103 0.171-0.1 0.27c-0 0.047 0.009 0.094 0.026 0.138s0.044 0.084 0.077 0.117c0.033 0.034 0.073 0.060 0.117 0.079s0.091 0.028 0.138 0.028z"></path>
<path fill="#8dd117" style="fill: var(--color16, #8dd117)" d="M10.295 25.011c0.231 0.004 0.451 0.099 0.613 0.263s0.253 0.386 0.254 0.616v0.199c-0.001 0.23-0.092 0.451-0.254 0.615s-0.382 0.258-0.612 0.261v0c-0.112-0.002-0.223-0.027-0.326-0.072s-0.195-0.111-0.273-0.192c-0.077-0.082-0.137-0.178-0.177-0.283s-0.058-0.217-0.054-0.329v-0.199c-0.004-0.112 0.014-0.225 0.054-0.33s0.1-0.202 0.177-0.283c0.077-0.082 0.17-0.148 0.273-0.193s0.214-0.071 0.326-0.073z"></path>
</symbol>
<symbol id="icon-puzzleclassicsrgb" viewBox="0 0 20 32">
<path fill="#aab1b1" style="fill: var(--color20, #aab1b1)" d="M15.655 18.824l-6.044-8.255 9.991 1.474c-2.162 1.648-3.582 4.087-3.947 6.781v0z"></path>
<path fill="#939c9c" style="fill: var(--color21, #939c9c)" d="M15.655 18.824l-6.044-8.255 7.346 4.464c-0.667 1.171-1.108 2.457-1.301 3.791v0z"></path>
<path fill="#ffc00c" style="fill: var(--color22, #ffc00c)" d="M19.327 7.734l-9.716 2.835 4.896-8.962c0.744 2.597 2.473 4.801 4.82 6.141v-0.013z"></path>
<path fill="#f90" style="fill: var(--color23, #f90)" d="M19.327 7.734l-9.716 2.835 6.715-5.427c0.809 1.058 1.826 1.94 2.987 2.592h0.013z"></path>
<path fill="#aab1b1" style="fill: var(--color20, #aab1b1)" d="M9.611 0.276v10.29l-7.147-7.259c1.334 0.002 2.655-0.265 3.883-0.786s2.338-1.284 3.264-2.245v0z"></path>
<path fill="#939c9c" style="fill: var(--color21, #939c9c)" d="M9.611 0.276v10.29l-3.276-8.059c1.234-0.512 2.349-1.272 3.276-2.234v0.003z"></path>
<path fill="#ffc00c" style="fill: var(--color22, #ffc00c)" d="M0.649 15.272l8.962-4.704-9.596-3.153c1.223 2.438 1.45 5.255 0.634 7.857v0z"></path>
<path fill="#f90" style="fill: var(--color23, #f90)" d="M0.649 15.272l8.962-4.704-8.527 0.717c0.113 1.343-0.035 2.696-0.435 3.983v0.003z"></path>
<path fill="#7dbd0d" style="fill: var(--color15, #7dbd0d)" d="M9.731 10.884l0.71 10.25-0.634 0.040-0.67-10.25 0.594-0.040z"></path>
<path fill="#7dbd0d" style="fill: var(--color15, #7dbd0d)" d="M9.847 21.934l-3.436 9.653 0.554 0.239 3.436-9.692-0.554-0.199z"></path>
<path fill="#68a303" style="fill: var(--color19, #68a303)" d="M10.046 21.576c-1.326-0.082-2.655 0.102-3.909 0.54s-2.408 1.123-3.394 2.013c1.327 0.095 2.659-0.083 3.915-0.522s2.409-1.13 3.388-2.031z"></path>
<path fill="#7dbd0d" style="fill: var(--color15, #7dbd0d)" d="M3.055 18.266c1.329 0.055 2.632 0.377 3.833 0.947s2.275 1.377 3.157 2.372c-1.327-0.065-2.627-0.392-3.827-0.961s-2.275-1.371-3.164-2.358v0z"></path>
<path fill="#7dbd0d" style="fill: var(--color15, #7dbd0d)" d="M17.392 19.063c-1.331-0.099-2.668 0.073-3.93 0.504s-2.424 1.115-3.416 2.008c1.33 0.096 2.666-0.077 3.928-0.509s2.424-1.113 3.417-2.004v0z"></path>
<path fill="#68a303" style="fill: var(--color19, #68a303)" d="M10.046 21.576c1.331 0.058 2.636 0.384 3.838 0.96s2.274 1.388 3.153 2.389c-1.331-0.057-2.637-0.383-3.838-0.959s-2.274-1.389-3.152-2.39z"></path>
</symbol>
<symbol id="icon-logicproblems" viewBox="0 0 32 32">
<path fill="#0c3e96" style="fill: var(--color1, #0c3e96)" d="M4.618 4.629c1.454-1.471 3.185-2.64 5.092-3.439 3.844-1.587 8.16-1.587 12.003 0 1.916 0.801 3.657 1.97 5.125 3.439 1.445 1.477 2.6 3.212 3.406 5.114 0.778 1.927 1.178 3.985 1.179 6.062-0.006 2.084-0.406 4.149-1.179 6.084-0.81 1.91-1.964 3.655-3.406 5.147-1.462 1.476-3.205 2.645-5.125 3.439-1.902 0.793-3.941 1.201-6.002 1.201s-4.1-0.408-6.002-1.201c-1.912-0.791-3.644-1.961-5.092-3.439-1.47-1.474-2.635-3.223-3.428-5.147-0.777-1.935-1.181-3.999-1.19-6.084 0.005-2.078 0.409-4.136 1.19-6.062 0.793-1.925 1.958-3.674 3.428-5.147v0.033zM15.718 0.926c3.678 0.039 7.213 1.433 9.928 3.915s4.419 5.879 4.786 9.539c0.367 3.66-0.628 7.327-2.796 10.299s-5.355 5.040-8.953 5.809l-0.121 0.253c0 0-0.066 0.066-0.099 0.066-0.455 0.090-0.915 0.153-1.378 0.187-0.453 0.056-0.91 0.078-1.367 0.066-0.711 0.007-1.422-0.037-2.127-0.132-0.698-0.107-1.387-0.265-2.061-0.474-0.023-0.005-0.044-0.016-0.061-0.032s-0.030-0.036-0.036-0.059-0.007-0.046-0.002-0.069c0.005-0.023 0.017-0.044 0.033-0.061l0.066-0.055c-3.407-1.047-6.328-3.276-8.237-6.286s-2.68-6.603-2.175-10.131 2.254-6.76 4.931-9.114c2.677-2.353 6.106-3.673 9.67-3.722zM9.81 1.455c-1.871 0.794-3.57 1.943-5.004 3.384-1.429 1.457-2.553 3.185-3.307 5.081-0.796 1.875-1.202 3.893-1.19 5.93-0.011 2.048 0.394 4.077 1.19 5.963 0.763 1.89 1.894 3.611 3.326 5.062s3.138 2.604 5.018 3.392c3.781 1.557 8.024 1.557 11.805 0 3.801-1.599 6.813-4.639 8.377-8.454 0.751-1.897 1.126-3.923 1.102-5.963 0.007-2.045-0.389-4.071-1.167-5.963s-1.92-3.611-3.364-5.060c-1.427-1.438-3.119-2.587-4.982-3.384-1.867-0.793-3.874-1.201-5.902-1.201s-4.036 0.409-5.903 1.201v0.011zM12.279 29.793l-0.474 0.474c0.599 0.16 1.206 0.289 1.819 0.386 0.694 0.097 1.394 0.148 2.094 0.154 0.463 0 0.904 0 1.345-0.066s0.871-0.088 1.279-0.187c0.121-0.254 0.242-0.54 0.375-0.816s0.187-0.507 0.276-0.794c-0.496 0.099-0.992 0.187-1.499 0.253-0.589 0.062-1.182 0.092-1.775 0.088-0.507 0-0.97 0-1.477-0.055l-1.334-0.187c-0.22 0.242-0.441 0.496-0.628 0.75zM14.12 27.181c-0.22 0.342-0.408 0.694-0.628 1.003 0.332 0.062 0.667 0.106 1.003 0.132 0.408 0 0.816 0 1.223 0 0.615 0 1.229-0.033 1.841-0.099 0.595-0.099 1.102-0.187 1.72-0.32 0.088-0.375 0.187-0.75 0.242-1.102 0.095-0.363 0.168-0.731 0.22-1.102l-1.345 0.187c-0.496 0-1.025 0.066-1.554 0.066-0.342 0-0.727 0-1.102 0l-0.992-0.088c-0.22 0.463-0.441 0.937-0.661 1.356l0.033-0.033zM15.652 23.422c-0.154 0.54-0.309 1.036-0.496 1.51 0.251 0.006 0.501 0.028 0.749 0.066 0.309 0 0.617 0 0.937 0 0.531 0.001 1.061-0.032 1.587-0.099 0.474 0 0.97-0.121 1.444-0.22 0-0.507 0.121-1.036 0.154-1.576s0-1.036 0.088-1.576c-0.339 0.062-0.681 0.103-1.025 0.121-0.375 0-0.783 0-1.19 0-0.323 0.016-0.647 0.016-0.97 0-0.28-0.002-0.56-0.020-0.838-0.055-0.132 0.628-0.287 1.224-0.441 1.797v0.033zM16.501 18.661c-0.066 0.716-0.165 1.389-0.254 2.050 0.254 0 0.496 0 0.75 0.055s0.595 0 0.904 0c0.309 0 0.816 0 1.19 0 0.37-0.024 0.737-0.068 1.102-0.132 0-1.235 0-2.458-0.121-3.593-0.072-1.069-0.208-2.133-0.408-3.185v-0.066c0.002-0.033 0.015-0.063 0.037-0.088s0.052-0.040 0.084-0.045c3.064 0.198 5.225 5.654 5.787 7.109 0.088-0.32 0.187-0.672 0.276-1.014 0.457-1.579 0.555-3.239 0.287-4.861-0.142-0.862-0.506-1.672-1.054-2.352s-1.264-1.206-2.076-1.528l-0.783-0.287c-0.031-0.004-0.059-0.019-0.081-0.040s-0.036-0.050-0.041-0.081c0-0.099 0.099-0.165 0.154-0.132 1.52 0.010 3.006 0.45 4.288 1.268-0.169-1.181-0.599-2.311-1.257-3.307-0.463-0.708-1.111-1.276-1.874-1.642-0.731-0.328-1.561-0.359-2.315-0.088-0.808 0.345-1.517 0.887-2.061 1.576-0.026 0.022-0.059 0.035-0.094 0.035s-0.068-0.012-0.094-0.035c-0.326-0.506-0.736-0.954-1.212-1.323-1.609-1.133-3.544-1.71-5.511-1.642-1.932-0.033-3.836 0.459-5.511 1.422-0.372 0.235-0.71 0.52-1.003 0.849 1.412-0.008 2.823 0.088 4.222 0.287 0.496 0.088 0.937 0.154 1.367 0.242s0.937 0.165 1.477 0.287v0.242l-0.628-0.099h-0.871c-4.508 0.132-5.225 5.996-5.511 8.52 0.75-1.036 2.899-3.814 4.806-4.607 0.305-0.123 0.618-0.226 0.937-0.309 0.066 0 0.154 0 0.154 0.066 0.009 0.018 0.014 0.037 0.014 0.057s-0.004 0.040-0.013 0.058c-0.008 0.018-0.021 0.034-0.036 0.046s-0.034 0.021-0.053 0.026c-4.31 1.422-3.847 6.525-3.505 8.961 0.652-1.658 1.527-3.219 2.601-4.64 0 0 0 0 0.088 0s0.121 0 0.154 0.099c0.086 0.532 0.365 1.015 0.783 1.356 0.452 0.339 1 0.524 1.565 0.529 0.626 0.005 1.23-0.232 1.686-0.661 0.219-0.193 0.393-0.43 0.511-0.697s0.177-0.555 0.173-0.846v-0.253c0.009-0.084 0.009-0.169 0-0.254-0.010-0.029-0.010-0.060 0-0.088 0.017-0.033 0.045-0.058 0.080-0.071s0.073-0.011 0.107 0.005l0.441 0.187c0.154 0.043 0.314 0.065 0.474 0.066 0.031 0.004 0.059 0.019 0.081 0.041s0.036 0.050 0.041 0.081c0 0.882 0 1.708-0.088 2.469l-0.165-0.022z"></path>
</symbol>
<symbol id="icon-puzzleclassics" viewBox="0 0 20 32">
<path fill="#0c3e96" style="fill: var(--color1, #0c3e96)" d="M15.641 18.636l-5.996-8.212c-0.012-0.012-0.022-0.027-0.029-0.043s-0.010-0.033-0.010-0.051 0.003-0.035 0.010-0.051c0.007-0.016 0.017-0.031 0.029-0.043 0.039-0.015 0.082-0.015 0.121 0l9.92 1.488c0.088 0 0.121 0.088 0.121 0.154s0 0.066-0.066 0.099c-1.037 0.796-1.916 1.779-2.59 2.899-0.65 1.153-1.083 2.416-1.279 3.726 0 0.066-0.099 0.121-0.154 0.121s-0.066 0-0.099-0.055l0.022-0.033zM10.13 10.524l5.588 7.716c0.227-1.221 0.66-2.395 1.279-3.472 0.614-1.085 1.434-2.040 2.414-2.811l-9.281-1.433z"></path>
<path fill="#0c3e96" style="fill: var(--color1, #0c3e96)" d="M15.729 18.548l-6.007-8.201 7.319 4.409c-0.678 1.155-1.123 2.432-1.312 3.759v0.033z"></path>
<path fill="#0c3e96" style="fill: var(--color1, #0c3e96)" d="M19.41 7.647l-9.656 2.844c-0.055 0-0.154 0-0.154-0.099s0-0.088 0-0.121l4.872-8.928c0.018-0.031 0.047-0.055 0.082-0.067s0.072-0.012 0.106 0.001c0 0 0.066 0.066 0.066 0.099 0.358 1.265 0.953 2.45 1.753 3.494 0.808 1.033 1.816 1.892 2.965 2.524 0.014 0.012 0.025 0.028 0.033 0.045s0.012 0.036 0.012 0.054-0.004 0.037-0.012 0.054c-0.008 0.017-0.019 0.032-0.033 0.045-0.003 0.016-0.011 0.030-0.023 0.040s-0.027 0.016-0.043 0.015h0.033zM10.008 10.116l8.994-2.623c-1.047-0.658-1.975-1.49-2.745-2.458-0.754-0.994-1.325-2.113-1.686-3.307l-4.563 8.388z"></path>
<path fill="#0c3e96" style="fill: var(--color1, #0c3e96)" d="M19.377 7.526l-9.656 2.811 6.613-5.401c0.806 1.064 1.828 1.947 2.998 2.59h0.044z"></path>
<path fill="#0c3e96" style="fill: var(--color1, #0c3e96)" d="M9.854 0.107v10.229c0.002 0.019-0.001 0.038-0.007 0.056s-0.015 0.035-0.027 0.049c-0.012 0.014-0.027 0.026-0.044 0.035s-0.035 0.014-0.054 0.015c0 0-0.055 0-0.088-0.066l-7.098-7.22c-0.055 0-0.055-0.132 0-0.198 0.032-0.010 0.067-0.010 0.099 0 1.298-0.004 2.582-0.262 3.781-0.761 1.195-0.538 2.285-1.284 3.219-2.204 0-0.055 0.121-0.055 0.187 0 0.007 0.016 0.011 0.033 0.011 0.050s-0.004 0.034-0.011 0.050l0.033-0.033zM9.601 10.028v-9.567c-0.896 0.848-1.933 1.534-3.064 2.028-1.131 0.465-2.338 0.719-3.56 0.75l6.624 6.79z"></path>
<path fill="#0c3e96" style="fill: var(--color1, #0c3e96)" d="M9.722 0.107v10.229l-3.241-7.991c1.21-0.523 2.31-1.271 3.241-2.204v-0.033z"></path>
<path fill="#0c3e96" style="fill: var(--color1, #0c3e96)" d="M1.036 14.745l8.344-4.409-8.939-2.932c0.524 1.137 0.845 2.357 0.948 3.604 0.089 1.249-0.031 2.504-0.353 3.715v0.022zM9.788 10.458l-8.939 4.673c-0.013 0.008-0.029 0.012-0.044 0.012s-0.031-0.004-0.044-0.012c-0.035-0.018-0.064-0.047-0.082-0.083s-0.024-0.076-0.017-0.115c0.411-1.261 0.561-2.592 0.441-3.913-0.111-1.321-0.486-2.607-1.102-3.781v-0.099c0-0.088 0.088-0.121 0.187-0.088l9.523 3.119c0 0 0.066 0 0.099 0.066 0.015 0.034 0.017 0.072 0.005 0.107s-0.038 0.064-0.071 0.080l0.044 0.033z"></path>
<path fill="#0c3e96" style="fill: var(--color1, #0c3e96)" d="M0.793 14.999l8.928-4.662-8.465 0.716c0.102 1.333-0.056 2.673-0.463 3.946z"></path>
<path fill="#0c3e96" style="fill: var(--color1, #0c3e96)" d="M9.821 10.876l0.683 10.218-0.595 0.033-0.683-10.196 0.595-0.055z"></path>
<path fill="#0c3e96" style="fill: var(--color1, #0c3e96)" d="M9.909 21.888l-3.406 9.623 0.562 0.187 3.406-9.623-0.562-0.187z"></path>
<path fill="#0c3e96" style="fill: var(--color1, #0c3e96)" d="M10.13 21.502c-1.316-0.076-2.635 0.11-3.878 0.549s-2.387 1.122-3.363 2.008c1.317 0.083 2.637-0.101 3.882-0.54s2.387-1.125 3.36-2.017z"></path>
<path fill="#0c3e96" style="fill: var(--color1, #0c3e96)" d="M9.788 21.634c-1.19-0.039-2.376 0.152-3.494 0.562-1.122 0.382-2.162 0.973-3.064 1.742 2.394 0.060 4.728-0.759 6.558-2.304zM6.228 21.91c1.252-0.435 2.579-0.615 3.902-0.529 0 0 0.066 0 0.099 0.055s0.055 0.132 0 0.198c-1.012 0.888-2.177 1.582-3.439 2.050-1.268 0.417-2.602 0.597-3.935 0.529 0 0-0.066-0-0.099-0.055-0.023-0.028-0.036-0.063-0.036-0.099s0.013-0.071 0.036-0.099c0.997-0.907 2.167-1.604 3.439-2.050h0.033z"></path>
<path fill="#0c3e96" style="fill: var(--color1, #0c3e96)" d="M3.163 18.096c1.334 0.048 2.643 0.371 3.847 0.948 1.223 0.563 2.318 1.37 3.218 2.37 0.027 0.030 0.042 0.070 0.042 0.11s-0.015 0.080-0.042 0.11h-0.099c-1.337-0.064-2.65-0.382-3.869-0.937-1.22-0.567-2.305-1.386-3.185-2.403-0.066 0-0.066-0.121 0-0.187 0.013-0.008 0.029-0.012 0.044-0.012s0.031 0.004 0.044 0.012v-0.011zM6.911 19.297c-1.069-0.514-2.224-0.824-3.406-0.915 0.822 0.866 1.798 1.572 2.877 2.083 1.073 0.496 2.227 0.795 3.406 0.882-0.828-0.851-1.802-1.546-2.877-2.050z"></path>
<path fill="#0c3e96" style="fill: var(--color1, #0c3e96)" d="M17.074 19.132c-1.191-0.025-2.377 0.157-3.505 0.54-1.131 0.384-2.181 0.975-3.097 1.742 1.191 0.025 2.377-0.158 3.505-0.54 1.128-0.392 2.177-0.981 3.097-1.741zM13.48 19.386c1.267-0.422 2.603-0.59 3.935-0.496 0 0 0.055 0 0.088 0.055 0.016 0.010 0.029 0.024 0.038 0.040s0.014 0.035 0.014 0.054c0 0.019-0.005 0.037-0.014 0.054s-0.022 0.030-0.038 0.040c-0.992 0.901-2.158 1.59-3.426 2.024s-2.612 0.604-3.948 0.5c0 0-0.088 0-0.088-0.055-0.016-0.010-0.029-0.024-0.038-0.040s-0.014-0.035-0.014-0.054 0.005-0.037 0.014-0.054c0.009-0.016 0.022-0.030 0.038-0.040 1.002-0.895 2.171-1.584 3.439-2.028z"></path>
<path fill="#0c3e96" style="fill: var(--color1, #0c3e96)" d="M10.129 21.502c1.323 0.073 2.619 0.409 3.811 0.988s2.257 1.39 3.133 2.385c-1.324-0.070-2.621-0.404-3.814-0.983s-2.257-1.392-3.13-2.39z"></path>
<path fill="#0c3e96" style="fill: var(--color1, #0c3e96)" d="M10.129 21.381c1.335 0.055 2.645 0.385 3.847 0.97 1.213 0.593 2.296 1.421 3.185 2.436 0.016 0.010 0.029 0.024 0.038 0.040s0.014 0.035 0.014 0.054c0 0.019-0.005 0.037-0.014 0.054s-0.022 0.030-0.038 0.040c-0.014 0.006-0.029 0.009-0.044 0.009s-0.030-0.003-0.044-0.009c-1.336-0.059-2.646-0.393-3.847-0.981-1.214-0.586-2.297-1.411-3.185-2.425-0.016-0.010-0.029-0.024-0.038-0.040s-0.014-0.035-0.014-0.054c0-0.019 0.005-0.037 0.014-0.054s0.022-0.030 0.038-0.040c0.014-0.007 0.029-0.010 0.044-0.010s0.030 0.004 0.044 0.010zM13.855 22.604c-1.063-0.507-2.21-0.817-3.384-0.915 0.814 0.861 1.777 1.567 2.844 2.083 1.073 0.507 2.225 0.828 3.406 0.948-0.815-0.878-1.787-1.596-2.866-2.116z"></path>
</symbol>
<symbol id="icon-holidaypuzzl" viewBox="0 0 29 32">
<path fill="#0c3e96" style="fill: var(--color1, #0c3e96)" d="M11.54 31.601h-7.374c-0.696-0.010-1.376-0.204-1.973-0.562h0.595c0.529 0 1.102 0 1.631-0.066 0.114 0.189 0.276 0.345 0.47 0.451s0.412 0.16 0.632 0.155c0.279-0.006 0.548-0.102 0.768-0.272s0.38-0.408 0.455-0.676c1.251-0.239 2.474-0.608 3.648-1.102l0.187-0.066c0.139 0.244 0.355 0.434 0.615 0.541s0.547 0.123 0.817 0.047c0.27-0.076 0.507-0.24 0.673-0.467s0.251-0.502 0.242-0.782c0.002-0.185-0.032-0.368-0.099-0.54 1.135-0.677 2.195-1.471 3.163-2.37 0.157 0.068 0.326 0.101 0.496 0.099 0.339-0.006 0.663-0.144 0.902-0.385s0.374-0.566 0.377-0.905c-0.008-0.186-0.049-0.369-0.121-0.54 0.788-0.93 1.499-1.921 2.127-2.965 0.129 0.038 0.262 0.060 0.397 0.066 0.343-0.012 0.668-0.158 0.903-0.408s0.362-0.583 0.354-0.926c0.003-0.196-0.042-0.389-0.13-0.564s-0.218-0.325-0.377-0.439c0.099-0.198 0.165-0.386 0.253-0.573 0.31-0.792 0.572-1.601 0.783-2.425 0.331-0.020 0.643-0.165 0.87-0.407s0.354-0.561 0.353-0.893c-0.008-0.233-0.081-0.459-0.209-0.653s-0.308-0.35-0.519-0.449c0.14-0.993 0.214-1.995 0.221-2.998l4.596 4.64c0.498 0.501 0.849 1.128 1.016 1.814s0.143 1.404-0.070 2.078c-0.212 0.673-0.605 1.276-1.135 1.742s-1.178 0.778-1.873 0.903c-0.105 0.016-0.201 0.069-0.27 0.15s-0.106 0.184-0.105 0.291c0.003 0.102 0.034 0.201 0.088 0.287l2.436 2.965c0.579 0.687 0.892 1.559 0.882 2.458 0.009 1.006-0.38 1.974-1.082 2.695s-1.66 1.134-2.666 1.152h-12.951v-0.099zM1.477 30.444c-0.253-0.264-0.465-0.565-0.628-0.893 0.099 0 0.187 0 0.287 0 0.447 0.013 0.892-0.062 1.309-0.221s0.8-0.399 1.124-0.706c0.325-0.307 0.585-0.676 0.767-1.084s0.282-0.848 0.293-1.295c-0.009-0.602-0.182-1.19-0.5-1.701s-0.771-0.925-1.307-1.198l-1.565 1.896 2.436-2.965c0.062-0.083 0.097-0.183 0.099-0.287 0.003-0.102-0.030-0.201-0.092-0.281s-0.15-0.137-0.249-0.16c-0.897-0.159-1.709-0.63-2.292-1.33s-0.899-1.584-0.893-2.495c0.002-0.671 0.172-1.33 0.496-1.918l0.683 0.088c0.353 0.066 0.661 0.099 1.003 0.132l1.003 0.088h1.907c0.075 0.275 0.237 0.519 0.461 0.696s0.499 0.277 0.784 0.285c0.33-0.009 0.643-0.144 0.875-0.378s0.365-0.549 0.37-0.878c0.424-0.055 0.844-0.139 1.257-0.254 0.776-0.165 1.538-0.386 2.282-0.661 0.111 0.194 0.271 0.354 0.465 0.465s0.414 0.167 0.637 0.163c0.339-0.011 0.661-0.153 0.899-0.395s0.374-0.566 0.379-0.906c0.013-0.102 0.013-0.206 0-0.309 1.29-0.656 2.513-1.439 3.648-2.337 0.209 0.126 0.45 0.191 0.694 0.187 0.167-0.001 0.332-0.036 0.485-0.102s0.292-0.162 0.408-0.282 0.207-0.262 0.267-0.418c0.061-0.156 0.089-0.322 0.085-0.489 0.004-0.198-0.037-0.394-0.121-0.573 0.496-0.529 0.97-1.102 1.433-1.642l1.499 1.521v0.595c0.006 0.951-0.057 1.902-0.187 2.844-0.338 0.008-0.66 0.147-0.898 0.388s-0.374 0.563-0.38 0.902c-0.004 0.26 0.073 0.514 0.219 0.729s0.354 0.38 0.597 0.472c-0.22 0.794-0.474 1.576-0.75 2.337-0.099 0.154-0.154 0.342-0.253 0.507-0.066 0-0.154 0-0.254 0-0.34 0.003-0.665 0.14-0.905 0.382s-0.374 0.568-0.374 0.908c-0 0.182 0.036 0.363 0.106 0.531s0.173 0.321 0.302 0.45c-0.578 0.996-1.246 1.937-1.995 2.811-0.226-0.199-0.515-0.312-0.816-0.32-0.339 0.011-0.661 0.153-0.899 0.395s-0.374 0.566-0.379 0.906c-0.003 0.311 0.107 0.612 0.309 0.849-0.935 0.852-1.95 1.613-3.031 2.271-0.225-0.201-0.514-0.314-0.816-0.32-0.17-0-0.338 0.034-0.494 0.099s-0.298 0.162-0.417 0.283c-0.119 0.121-0.213 0.265-0.276 0.422s-0.094 0.326-0.091 0.496v0.121l-0.187 0.066c-1.107 0.481-2.259 0.85-3.439 1.102-0.058-0.306-0.228-0.58-0.476-0.768s-0.558-0.277-0.869-0.25-0.6 0.169-0.811 0.398c-0.212 0.229-0.331 0.528-0.334 0.84v0.165c-0.474 0-0.97 0-1.444 0s-0.871 0-1.312 0l-0.132 0.022zM1.102 15.354l0.287-0.287 10.967-11.078-8.752 8.818c0.645 0.164 1.307 0.249 1.973 0.254 4.806 0 8.024-4.299 9.336-7.319l0.882 0.496c0.048 0.036 0.104 0.061 0.163 0.073s0.12 0.009 0.179-0.006c0.054-0.013 0.104-0.036 0.149-0.069s0.082-0.073 0.111-0.121c0.029-0.047 0.048-0.099 0.056-0.154s0.006-0.11-0.007-0.164l-0.342-1.697 0.154-0.165 3.902 3.946c-0.42 0.566-0.876 1.104-1.367 1.609-0.227-0.17-0.499-0.27-0.783-0.287-0.343 0.003-0.671 0.141-0.913 0.385s-0.377 0.573-0.377 0.916c0.012 0.242 0.076 0.479 0.187 0.694-1.066 0.864-2.227 1.604-3.461 2.205-0.12-0.15-0.273-0.27-0.447-0.353s-0.364-0.124-0.556-0.121c-0.339 0.006-0.663 0.144-0.902 0.385s-0.374 0.566-0.377 0.905c0.003 0.055 0.003 0.11 0 0.165-0.716 0.254-1.466 0.474-2.205 0.661-0.375 0.099-0.805 0.154-1.212 0.22-0.102-0.253-0.284-0.466-0.518-0.607s-0.507-0.201-0.779-0.173c-0.271 0.029-0.526 0.145-0.726 0.331s-0.333 0.433-0.38 0.701c-0.305 0.017-0.61 0.017-0.915 0-0.319 0.017-0.639 0.017-0.959 0-0.324-0.004-0.648-0.026-0.97-0.066-0.342 0-0.661-0.066-0.97-0.121-0.149-0.007-0.296-0.029-0.441-0.066l0.011 0.088z"></path>
<path fill="#0c3e96" style="fill: var(--color1, #0c3e96)" d="M11.54 31.734h-7.374c-0.789 0.001-1.559-0.242-2.204-0.694h0.474c0.523 0.265 1.1 0.405 1.686 0.408h0.783c0.162 0.088 0.344 0.133 0.529 0.132 0.185 0.007 0.369-0.038 0.529-0.132h18.518c0.48-0.003 0.956-0.101 1.398-0.288s0.843-0.461 1.179-0.804c0.336-0.343 0.601-0.75 0.779-1.196s0.266-0.923 0.259-1.404c0.007-0.864-0.289-1.703-0.838-2.37l-2.469-2.998c-0.035-0.037-0.058-0.083-0.066-0.132-0.016-0.061-0.016-0.126 0-0.187-0.006-0.068 0.002-0.137 0.025-0.202s0.060-0.124 0.107-0.173c0.082-0.114 0.204-0.192 0.342-0.22 0.868-0.131 1.655-0.583 2.204-1.268 0.442-0.518 0.732-1.149 0.837-1.823s0.021-1.363-0.242-1.991c-0.19-0.443-0.455-0.849-0.783-1.201-1.102-1.102-2.778-2.689-4.497-4.354v-0.606l4.718 4.773c0.711 0.759 1.105 1.76 1.102 2.8 0.007 0.948-0.325 1.866-0.937 2.59-0.598 0.726-1.441 1.209-2.37 1.356-0.031 0.005-0.061 0.016-0.088 0.033s-0.049 0.040-0.066 0.066c-0.032 0.027-0.058 0.061-0.075 0.099s-0.025 0.080-0.024 0.122c0 0 0 0.066 0 0.099s0 0 0.066 0.088l2.436 2.965c0.274 0.367 0.493 0.771 0.65 1.201 0.151 0.436 0.225 0.895 0.22 1.356 0.005 1.043-0.39 2.049-1.102 2.811-0.357 0.368-0.783 0.66-1.254 0.861s-0.978 0.305-1.49 0.307l-12.962-0.022zM1.29 30.444c-0.663-0.738-1.029-1.697-1.025-2.689 0.008-0.459 0.078-0.915 0.209-1.356 0.173-0.432 0.407-0.836 0.694-1.201l2.403-2.932c0 0 0-0.066 0-0.088 0.007-0.016 0.011-0.033 0.011-0.050s-0.004-0.034-0.011-0.050c-0.002-0.078-0.025-0.154-0.066-0.22-0.066 0-0.121-0.099-0.187-0.099-0.925-0.14-1.764-0.624-2.348-1.356-0.621-0.721-0.965-1.639-0.97-2.59 0.010-0.519 0.119-1.031 0.32-1.51 0.056-0.155 0.13-0.303 0.22-0.441l0.276 0.066c-0.095 0.152-0.18 0.31-0.254 0.474-0.186 0.447-0.28 0.927-0.276 1.411 0.002 0.878 0.31 1.728 0.871 2.403 0.56 0.672 1.342 1.122 2.205 1.268 0.133 0.039 0.251 0.116 0.342 0.22 0.075 0.111 0.117 0.241 0.121 0.375 0 0.066 0 0.121 0 0.187-0.021 0.049-0.051 0.094-0.088 0.132l-2.436 2.998c-0.289 0.316-0.504 0.693-0.628 1.102-0.15 0.402-0.225 0.828-0.22 1.257 0.011 0.985 0.406 1.926 1.102 2.623l0.066 0.066h-0.331zM0.948 15.277c0.105-0.122 0.22-0.236 0.342-0.342l10.934-11.078 0.22 0.187c-1.091 1.25-2.25 2.439-3.472 3.56-0.309 0.32-0.683 0.761-1.025 1.102-2.204 2.205-4.651 4.541-6.47 6.404l-0.22 0.22-0.309-0.055zM22.067 10.262c-0.562-0.573-1.102-1.102-1.72-1.708l0.287-0.375 1.433 1.455v0.628zM19.94 8.179c-1.345-1.298-2.608-2.678-3.781-4.133l0.187-0.187 3.913 3.946c-0.099 0.121-0.22 0.242-0.32 0.375z"></path>
<path fill="#0c3e96" style="fill: var(--color1, #0c3e96)" d="M0.728 29.606c-0.306-0.573-0.465-1.213-0.463-1.863 0.008-0.459 0.078-0.915 0.209-1.356 0.173-0.432 0.407-0.836 0.694-1.201l1.62-1.951h0.099c0.556 0.295 1.026 0.727 1.367 1.257 0.354 0.52 0.543 1.135 0.54 1.764-0.003 0.456-0.103 0.906-0.293 1.32s-0.466 0.783-0.809 1.083c-0.704 0.653-1.63 1.015-2.59 1.014h-0.375v-0.066zM0.639 28.625c0.057 0.275 0.149 0.542 0.276 0.794h0.22c0.887 0.005 1.744-0.321 2.403-0.915 0.302-0.283 0.543-0.625 0.71-1.003s0.255-0.787 0.26-1.201c-0.002-0.56-0.157-1.109-0.448-1.587s-0.708-0.867-1.205-1.125l-1.466 1.797c-0.289 0.316-0.504 0.693-0.628 1.102-0.15 0.402-0.225 0.828-0.22 1.256-0.002 0.297 0.031 0.593 0.099 0.882z"></path>
<path fill="#0c3e96" style="fill: var(--color1, #0c3e96)" d="M14.825 0.331l0.65 1.543 1.653 0.165c0.147 0.024 0.28 0.102 0.373 0.217s0.141 0.262 0.134 0.411c-0.002 0.078-0.024 0.154-0.066 0.22-0.034 0.066-0.088 0.12-0.154 0.154l-1.19 1.102 0.342 1.631c0.018 0.072 0.020 0.147 0.005 0.22s-0.047 0.141-0.093 0.199c-0.035 0.064-0.084 0.121-0.143 0.164s-0.127 0.074-0.199 0.089c-0.15 0.025-0.305 0.002-0.441-0.066l-1.411-0.827-1.433 0.827c-0.122 0.075-0.269 0.099-0.408 0.066-0.076-0.016-0.147-0.051-0.207-0.101s-0.106-0.114-0.135-0.186c-0.154-0.22-0.099-0.353 0-0.606l0.287-1.411-1.223-1.102c-0.090-0.122-0.154-0.26-0.187-0.408 0.012-0.148 0.065-0.289 0.154-0.408 0.065-0.068 0.144-0.12 0.232-0.152s0.182-0.045 0.275-0.035l1.499-0.165 0.683-1.543c0.065-0.134 0.178-0.239 0.318-0.292s0.294-0.051 0.432 0.006c0.065 0.025 0.119 0.072 0.154 0.132 0.053 0.043 0.098 0.095 0.132 0.154h-0.033zM15.255 2.039l-0.683-1.576c0 0 0-0.066-0.066-0.099l-0.088-0.066c-0.034-0.017-0.072-0.025-0.11-0.025s-0.076 0.009-0.11 0.025c-0.067 0.038-0.121 0.096-0.154 0.165l-0.75 1.664-1.786 0.198c-0.066 0-0.088 0-0.121 0-0.018 0-0.034 0.007-0.047 0.019s-0.019 0.029-0.019 0.047c-0.030 0.028-0.053 0.063-0.068 0.101s-0.022 0.079-0.020 0.12c-0.001 0.036 0.007 0.072 0.022 0.104s0.038 0.061 0.066 0.083c0.474 0.386 0.904 0.827 1.345 1.235l-0.375 1.797v0.099c0 0 0 0.066 0 0.088s0.121 0.132 0.187 0.132c0.034 0.017 0.072 0.025 0.11 0.025s0.076-0.009 0.11-0.025l1.554-0.915c0.54 0.287 1.036 0.595 1.565 0.882l0.099 0.066h0.121c0.066 0 0.154-0.066 0.187-0.132 0.016-0.035 0.024-0.072 0.024-0.11s-0.008-0.076-0.024-0.11l-0.375-1.797c0.43-0.408 0.871-0.816 1.345-1.201 0 0 0-0.066 0-0.088s0-0.066 0-0.132c0.005-0.039 0.001-0.079-0.010-0.117s-0.031-0.073-0.056-0.103c0-0.066-0.121-0.088-0.187-0.088l-1.808-0.198 0.121-0.066z"></path>
</symbol>
<symbol id="icon-slidetouch" viewBox="0 0 52 32">
<path fill="#fefefe" style="fill: var(--color18, #fefefe)" d="M35.986 1.029c2.198 0.034 4.296 0.926 5.845 2.487 0.758 0.778 1.353 1.7 1.75 2.712s0.588 2.092 0.562 3.179c0.013 1.059-0.185 2.109-0.582 3.090s-0.985 1.874-1.73 2.626c-0.759 0.787-1.667 1.415-2.67 1.85s-2.082 0.666-3.175 0.681c-1.086-0.016-2.159-0.248-3.154-0.683s-1.896-1.063-2.647-1.848c-0.751-0.75-1.345-1.641-1.75-2.622s-0.61-2.033-0.606-3.094c-0.018-1.089 0.181-2.171 0.585-3.182s1.006-1.932 1.77-2.708c1.533-1.558 3.616-2.451 5.801-2.487zM40.828 4.389c-1.278-1.305-3.016-2.057-4.842-2.095-1.855 0.019-3.627 0.773-4.929 2.095-1.287 1.35-1.992 3.152-1.963 5.018-0.011 1.81 0.695 3.552 1.963 4.843 0.637 0.668 1.401 1.202 2.248 1.569s1.758 0.561 2.681 0.569c0.909-0.017 1.804-0.215 2.636-0.583s1.581-0.896 2.206-1.556c0.67-0.614 1.203-1.363 1.564-2.198s0.541-1.736 0.53-2.645c0.020-0.936-0.156-1.866-0.517-2.73s-0.898-1.643-1.577-2.287z"></path>
<path fill="#fefefe" style="fill: var(--color18, #fefefe)" d="M28.44 30.133c0.997-0.006 1.982-0.207 2.901-0.594s1.752-0.951 2.453-1.66c0.701-0.709 1.255-1.549 1.631-2.473s0.567-1.912 0.561-2.909c-0.022-1.999-0.823-3.911-2.232-5.328s-3.315-2.23-5.314-2.264c-1.998 0.023-3.906 0.833-5.311 2.254s-2.192 3.339-2.192 5.338c-0.017 0.997 0.164 1.986 0.533 2.912s0.919 1.769 1.617 2.479c0.698 0.711 1.532 1.276 2.45 1.661s1.905 0.584 2.902 0.584z"></path>
<path fill="#fefefe" style="fill: var(--color18, #fefefe)" d="M28.44 30.744c-2.169 0.013-4.255-0.834-5.801-2.356-0.768-0.773-1.372-1.694-1.777-2.706s-0.601-2.095-0.578-3.185c-0.005-1.061 0.201-2.113 0.606-3.094s0.999-1.872 1.75-2.622c0.751-0.785 1.651-1.413 2.647-1.848s2.068-0.667 3.154-0.683c1.074 0.016 2.133 0.248 3.115 0.683s1.866 1.063 2.599 1.848c0.771 0.742 1.387 1.629 1.814 2.61s0.655 2.037 0.673 3.106c0.001 1.098-0.219 2.186-0.646 3.198s-1.053 1.928-1.84 2.693c-0.75 0.751-1.641 1.346-2.621 1.75s-2.032 0.61-3.093 0.606zM23.511 27.516c0.643 0.651 1.412 1.164 2.259 1.509s1.756 0.514 2.67 0.498c0.9 0.007 1.793-0.167 2.625-0.512s1.586-0.853 2.217-1.495c0.679-0.644 1.216-1.424 1.577-2.288s0.536-1.794 0.517-2.73c0.012-0.909-0.169-1.811-0.53-2.645s-0.894-1.584-1.564-2.198c-0.607-0.683-1.353-1.227-2.188-1.596s-1.74-0.554-2.653-0.542c-0.927-0.021-1.848 0.158-2.699 0.527s-1.612 0.919-2.23 1.61c-1.268 1.292-1.974 3.033-1.963 4.843-0.029 1.865 0.676 3.668 1.963 5.018z"></path>
<path fill="#fefefe" style="fill: var(--color18, #fefefe)" d="M43.531 29.654c1.851-0.017 3.628-0.734 4.973-2.007 1.287-1.35 1.992-3.152 1.963-5.018 0.011-1.811-0.695-3.552-1.963-4.843-0.642-0.674-1.413-1.211-2.268-1.578s-1.775-0.558-2.705-0.56c-0.927-0.021-1.848 0.159-2.699 0.528s-1.612 0.919-2.23 1.61c-1.268 1.292-1.974 3.033-1.963 4.843-0.029 1.865 0.676 3.667 1.963 5.018 0.643 0.651 1.411 1.164 2.259 1.509s1.755 0.514 2.67 0.498zM49.333 28.519c-1.546 1.522-3.632 2.369-5.801 2.356-2.169 0.013-4.255-0.834-5.801-2.356-0.768-0.773-1.372-1.694-1.777-2.706s-0.601-2.095-0.578-3.185c-0.005-1.061 0.201-2.113 0.606-3.094s0.999-1.872 1.75-2.622c0.751-0.785 1.651-1.414 2.647-1.848s2.068-0.667 3.155-0.683c1.086 0.016 2.159 0.248 3.154 0.683s1.896 1.063 2.647 1.848c0.759 0.744 1.359 1.634 1.764 2.616s0.606 2.037 0.592 3.1c0.033 1.091-0.159 2.177-0.564 3.191s-1.015 1.933-1.791 2.7z"></path>
<path fill="#fefefe" style="fill: var(--color18, #fefefe)" d="M6.325 16.127c-0.732-0.201-1.436-0.494-2.094-0.873l-0.611 1.135c0.764 0.445 1.586 0.783 2.443 1.003l0.262-1.265zM1.963 12.898c-0.363-0.667-0.613-1.39-0.741-2.138l-1.221 0.262c0.146 0.886 0.473 1.733 0.96 2.487l1.003-0.611zM1.352 7.269c0.249-0.701 0.57-1.374 0.96-2.007l-0.96-0.742c-0.534 0.7-0.92 1.502-1.134 2.356l1.134 0.393zM4.929 2.906c0.648-0.353 1.36-0.576 2.094-0.655v-1.222c-0.849 0.114-1.674 0.364-2.443 0.742l0.349 1.135zM10.512 2.644c0.681 0.25 1.304 0.636 1.832 1.135l0.873-1.003c-0.711-0.548-1.507-0.976-2.356-1.266l-0.349 1.135zM14.438 6.527c0.236 0.726 0.411 1.47 0.523 2.225h1.221c-0.099-0.894-0.305-1.773-0.611-2.618l-1.134 0.393zM14.438 12.156c-0.371 0.648-0.778 1.275-1.221 1.876l0.872 0.873c0.589-0.69 1.087-1.453 1.483-2.269l-1.134-0.48zM10.381 15.865c-0.726 0.205-1.472 0.337-2.225 0.392v1.265c0.879-0.044 1.747-0.22 2.574-0.524l-0.349-1.134z"></path>
<path fill="#fefefe" style="fill: var(--color18, #fefefe)" d="M6.718 18.745c0.855 1.985 2.264 3.681 4.057 4.887 1.702 1.021 3.721 1.378 5.67 1.004l0.262 1.265c-2.262 0.394-4.59-0.057-6.543-1.265-1.909-1.365-3.415-3.219-4.362-5.367l0.916-0.524z"></path>
<path fill="#fefefe" style="fill: var(--color18, #fefefe)" d="M13.217 20.403l4.842 4.887-4.929 4.843-0.872-0.873 4.057-3.971-3.926-4.014 0.829-0.873z"></path>
</symbol>
<symbol id="icon-remove" viewBox="0 0 31 32">
<path fill="#fefefe" style="fill: var(--color18, #fefefe)" d="M12.955 22.095c0.608 0.296 1.261 0.489 1.933 0.572v-0.942c-0.56-0.107-1.106-0.277-1.628-0.505l-0.305 0.875zM17.974 22.095c0.645-0.299 1.258-0.659 1.831-1.077l-0.678-0.74c-0.482 0.372-1.005 0.689-1.56 0.942l0.407 0.875zM21.535 18.528c0.249-0.649 0.409-1.328 0.475-2.019h-0.984c-0.019 0.601-0.145 1.193-0.373 1.75l0.882 0.269zM21.535 13.413c-0.3-0.624-0.688-1.202-1.153-1.716l-0.678 0.673c0.382 0.437 0.701 0.924 0.95 1.447l0.882-0.404zM17.872 10.048c-0.65-0.244-1.34-0.37-2.035-0.37v0.942c0.568-0.004 1.132 0.099 1.662 0.303l0.373-0.875zM12.785 10.25c-0.628 0.298-1.211 0.683-1.73 1.144l0.644 0.774c0.442-0.405 0.931-0.755 1.458-1.043l-0.373-0.875zM9.394 14.019c-0.17 0.774-0.271 1.245-0.373 2.019h0.95c0.044-0.625 0.146-1.245 0.305-1.851l-0.882-0.168zM9.699 19.1c0.318 0.618 0.742 1.177 1.255 1.649l0.678-0.673c-0.441-0.419-0.808-0.908-1.085-1.447l-0.848 0.471z"></path>
<path fill="#fefefe" style="fill: var(--color18, #fefefe)" d="M28.351 21.22c-1.048-1.029-2.46-1.609-3.934-1.616-1.451 0.021-2.837 0.6-3.866 1.616-0.534 0.514-0.955 1.132-1.235 1.815s-0.414 1.418-0.393 2.156c-0.015 0.732 0.122 1.459 0.402 2.136s0.697 1.29 1.225 1.801c0.509 0.5 1.112 0.894 1.776 1.16s1.374 0.398 2.090 0.388c0.727 0.017 1.45-0.112 2.125-0.378s1.291-0.664 1.809-1.17c1.027-1.060 1.609-2.467 1.628-3.937-0.007-1.482-0.59-2.905-1.628-3.971zM24.417 18.629c0.859 0 1.708 0.17 2.5 0.5s1.51 0.812 2.112 1.419c1.212 1.248 1.892 2.911 1.899 4.644-0.039 1.717-0.715 3.358-1.899 4.611-0.606 0.598-1.326 1.070-2.118 1.387s-1.64 0.475-2.494 0.463c-0.843 0.005-1.679-0.156-2.459-0.474s-1.489-0.786-2.085-1.377c-1.222-1.227-1.905-2.885-1.899-4.611-0.013-0.861 0.148-1.715 0.475-2.513s0.811-1.522 1.425-2.131c0.593-0.601 1.3-1.079 2.080-1.408s1.617-0.503 2.465-0.51z"></path>
<path fill="#fefefe" style="fill: var(--color18, #fefefe)" d="M10.479 3.216c-0.513-0.529-1.13-0.948-1.812-1.231s-1.416-0.426-2.156-0.418c-0.736-0.014-1.466 0.126-2.143 0.41s-1.288 0.706-1.791 1.239c-1.023 1.021-1.607 2.397-1.628 3.837 0.007 1.482 0.59 2.905 1.628 3.971 1.044 1.038 2.456 1.63 3.934 1.649 1.485-0.031 2.903-0.621 3.968-1.649 1.010-1.076 1.557-2.501 1.526-3.971 0.017-1.428-0.531-2.805-1.526-3.837zM6.511 0.625c0.861-0.019 1.717 0.142 2.512 0.472s1.51 0.823 2.1 1.446c0.59 0.595 1.055 1.299 1.37 2.073s0.471 1.602 0.462 2.436c0.022 0.856-0.129 1.708-0.443 2.505s-0.786 1.525-1.388 2.139c-0.603 0.606-1.322 1.087-2.113 1.416s-1.641 0.5-2.499 0.502c-1.728-0.033-3.377-0.719-4.612-1.918-1.212-1.248-1.892-2.911-1.899-4.644 0.041-1.686 0.719-3.296 1.899-4.51 0.594-0.618 1.31-1.107 2.104-1.438s1.648-0.494 2.508-0.481z"></path>
<path fill="#fefefe" style="fill: var(--color18, #fefefe)" d="M21.569 9.341c0.639-2.272 1.936-4.308 3.73-5.856 0.71-0.689 1.555-1.226 2.483-1.579s1.917-0.514 2.91-0.474v0.976c-0.864-0.037-1.726 0.099-2.536 0.399s-1.551 0.76-2.178 1.351c-1.618 1.443-2.794 3.309-3.391 5.384l-1.017-0.202z"></path>
<path fill="#fefefe" style="fill: var(--color18, #fefefe)" d="M25.265 0.726h5.765v5.889h-0.95v-4.913h-4.816v-0.976z"></path>
</symbol>
<symbol id="icon-chesspuzzl" viewBox="0 0 24 32">
<path fill="#0c3e96" style="fill: var(--color1, #0c3e96)" d="M12.213 4.189c0.22 0.099 0.408 0.198 0.628 0.287s0.408 0.187 0.617 0.287l0.287-0.573c-0.12-0.051-0.234-0.114-0.342-0.187-0.141-0.052-0.277-0.114-0.408-0.187-0.069-0.040-0.143-0.069-0.22-0.088 0.254-0.606 0.507-1.168 0.716-1.808 0.254 0.132 0.507 0.22 0.728 0.353 0.279 0.127 0.548 0.274 0.805 0.441 0.386 0.213 0.754 0.457 1.102 0.728-0.463 0.727-0.937 1.422-1.4 2.138 0.195 0.141 0.383 0.291 0.562 0.452 0.176 0.134 0.342 0.282 0.496 0.441l0.441-0.474-0.066-0.066c-0.088-0.099-0.22-0.187-0.342-0.32s-0.287-0.22-0.441-0.342c0.375-0.507 0.75-1.014 1.157-1.543 0.079 0.080 0.164 0.153 0.253 0.22l0.716 0.628 0.342 0.342c0.276 0.287 0.562 0.595 0.838 0.915l-0.496 0.441-1.323 1.301c0.165 0.187 0.287 0.375 0.441 0.562l0.375 0.573 0.529-0.353c0 0 0 0 0-0.055-0.121-0.198-0.276-0.419-0.397-0.606-0.036-0.058-0.080-0.11-0.132-0.154v-0.066c0.463-0.375 0.959-0.75 1.466-1.102 0.276 0.386 0.562 0.727 0.816 1.102l0.65 1.235c0.051 0.102 0.091 0.209 0.121 0.32-0.75 0.342-1.466 0.716-2.204 1.102l0.287 0.628c0.088 0.22 0.154 0.441 0.22 0.661l0.584-0.187c0-0.099-0.055-0.22-0.088-0.32-0.062-0.124-0.113-0.253-0.154-0.386-0.036-0.106-0.080-0.209-0.132-0.309l1.753-0.727c0.038 0.105 0.082 0.208 0.132 0.309 0.154 0.441 0.309 0.915 0.43 1.356 0.127 0.448 0.223 0.905 0.287 1.367l-2.436 0.474c0 0.242 0.055 0.463 0.088 0.716 0.017 0.231 0.017 0.463 0 0.694h0.628v-0.408c0-0.254 0-0.474-0.066-0.727 0.595-0.088 1.223-0.154 1.841-0.221 0 0.099 0 0.221 0 0.353 0.038 0.219 0.060 0.44 0.066 0.661 0.017 0.305 0.017 0.61 0 0.915v1.047h-2.568v1.631h0.783v-1.268h1.786v2.877h-2.568v1.609h0.783v-1.179h1.786v2.877h-4.067c0 0.055-0.066 0.088-0.099 0.154-0.154 0.181-0.332 0.34-0.529 0.474-0.071 0.137-0.112 0.287-0.121 0.441-0.006 0.228 0.074 0.449 0.226 0.619s0.363 0.276 0.59 0.295h1.102c0.191 0.001 0.381 0.041 0.557 0.116s0.335 0.185 0.469 0.322 0.238 0.3 0.308 0.478c0.070 0.178 0.104 0.369 0.099 0.56 0.003 0.28-0.074 0.555-0.22 0.794h1.819c0.292 0 0.573 0.116 0.779 0.323s0.323 0.487 0.323 0.779v3.759h-0.562v-2.656h-1.62v0.827h1.102v1.83h-2.723v-2.656h-1.62v0.827h1.102v1.83h-2.756v-2.656h-1.565v0.827h1.102v1.83h-2.756v-2.656h-1.587v0.827h1.102v1.83h-2.756v-2.656h-1.587v0.827h1.102v1.83h-2.756v-2.656h-1.532v0.827h1.102v1.83h-2.756v-2.656h-1.587v0.827h1.102v1.83h-2.756v-3.759c0-0.292 0.116-0.573 0.323-0.779s0.487-0.323 0.779-0.323h1.367c-0.107-0.185-0.176-0.39-0.202-0.602s-0.010-0.427 0.048-0.633c0.072-0.23 0.188-0.443 0.342-0.628 0.235-0.2 0.515-0.34 0.816-0.408 0.187-0.016 0.375-0.016 0.562 0h0.86c0.224-0.027 0.431-0.135 0.581-0.303s0.234-0.386 0.235-0.612c0.007-0.158-0.039-0.313-0.132-0.441-0.205-0.136-0.384-0.308-0.529-0.507v-0.066c-0.177-0.235-0.312-0.5-0.397-0.783-0.075-0.288-0.12-0.584-0.132-0.882 0.005-0.424 0.091-0.843 0.254-1.235 0.187-0.372 0.429-0.713 0.716-1.014 0 0 0 0 0.066-0.055 0.276-0.253 0.595-0.474 0.904-0.727 1.589-1.062 2.701-2.704 3.097-4.574v-0.066h0.055c0.133-0.059 0.259-0.133 0.375-0.22 0.395-0.302 0.7-0.706 0.882-1.168 0.108-0.283 0.171-0.58 0.187-0.882h-0.165c0.001 0.279-0.052 0.556-0.154 0.816-0.124 0.316-0.303 0.607-0.529 0.86-0.151 0.146-0.317 0.276-0.496 0.386-0.27 0.13-0.555 0.226-0.849 0.287-0.289 0.044-0.582 0.044-0.871 0-0.248-0.022-0.49-0.085-0.716-0.187-0.213-0.058-0.414-0.151-0.595-0.276-0.77 0.226-1.457 0.675-1.973 1.29-0.55 0.618-0.907 1.385-1.025 2.205v0.165l-1.841-0.253-1.753-2.436 4.189-7.639 2.436-1.444 0.783-4.795h0.121c0.497 0.023 0.967 0.236 1.312 0.595 0.362 0.355 0.595 0.82 0.661 1.323l0.408 1.642c0.276 0.066 0.65 0.099 0.904 0.154l0.121-0.628h-0.066c-0.225-0.057-0.453-0.098-0.683-0.121-0.088 0-0.187 0-0.309-0.066 0.088-0.628 0.187-1.268 0.276-1.896 0.32 0 0.628 0.099 0.937 0.132s0.474 0.121 0.727 0.154c0.43 0.121 0.871 0.287 1.312 0.441-0.287 0.816-0.562 1.609-0.816 2.425l-0.187 0.033zM9.303 4.795c-0.43-1.797-0.496-3.604-1.466-3.913l-0.463 3.913c0.64-0.084 1.289-0.084 1.929 0zM18.121 21.99h3.186v-1.642h-0.595v1.102h-1.973v-2.833h2.568v-1.609h-0.595v1.102h-1.973v-2.822h2.502c0.017-0.117 0.017-0.236 0-0.353 0-0.32 0-0.628 0-0.948-0.018-0.084-0.018-0.17 0-0.254l-0.595 0.099v0.287c0 0 0 0.088 0 0.121v0.794h-1.874v-0.463c0.017-0.275 0.017-0.551 0-0.827-0.030-0.297-0.082-0.592-0.154-0.882l-0.055-0.408 2.469-0.507c-0.071-0.205-0.126-0.415-0.165-0.628-0.099-0.32-0.187-0.628-0.32-0.948l-0.562 0.22c0.007 0.016 0.011 0.033 0.011 0.050s-0.004 0.034-0.011 0.050c0 0 0 0 0 0.055 0.088 0.227 0.162 0.459 0.22 0.694 0 0.099 0.055 0.187 0.088 0.32-0.628 0.154-1.212 0.342-1.841 0.54l-0.121-0.452c-0.071-0.265-0.156-0.526-0.254-0.783-0.099-0.254-0.187-0.474-0.287-0.694l-0.242-0.507 2.205-1.102c-0.099-0.154-0.154-0.32-0.254-0.441s-0.066-0.099-0.088-0.154c-0.16-0.299-0.341-0.586-0.54-0.86l-0.463 0.386c0 0 0 0.055 0.055 0.088 0.132 0.22 0.253 0.408 0.375 0.628s0.099 0.198 0.165 0.287c-0.54 0.287-1.102 0.661-1.631 0.981l-0.187-0.353c-0.154-0.242-0.342-0.496-0.496-0.716s-0.309-0.419-0.474-0.639l-0.298-0.397 1.874-1.708c-0.094-0.122-0.197-0.236-0.309-0.342l-0.375-0.386c-0.154-0.154-0.309-0.276-0.474-0.441l-0.397 0.474c0.121 0.099 0.242 0.22 0.342 0.32 0.195 0.16 0.373 0.342 0.529 0.54-0.441 0.441-0.871 0.915-1.312 1.389l-0.342-0.32c-0.185-0.194-0.384-0.375-0.595-0.54-0.254-0.187-0.474-0.375-0.716-0.529l-0.32-0.22 1.378-2.149c-0.266-0.196-0.55-0.366-0.849-0.507-0.187-0.12-0.382-0.226-0.584-0.32l-0.22 0.573c0 0 0 0 0.055 0l0.661 0.342c0.108 0.058 0.211 0.125 0.309 0.198l-0.937 1.697-0.408-0.22-0.683-0.375c-0.233-0.099-0.473-0.184-0.716-0.253l-0.474-0.187 0.783-2.436-0.628-0.187c-0.308-0.090-0.621-0.164-0.937-0.22l-0.088 0.628c0.375 0.066 0.75 0.165 1.102 0.254l-0.066 0.32-0.375 1.576-0.496-0.121c-0.187 0-0.474-0.099-0.716-0.132v0.408c2.21 0.348 4.226 1.469 5.688 3.163 1.53 1.738 2.403 3.957 2.469 6.272 0 0.386 0 0.827 0 1.201v5.842c-0.002 0.276-0.043 0.551-0.121 0.816h0.154zM4.089 26.884h2.656c0.238-0.026 0.458-0.138 0.618-0.316s0.248-0.409 0.248-0.648-0.088-0.47-0.248-0.648c-0.16-0.178-0.38-0.291-0.618-0.316h-2.623c-0.238 0.026-0.458 0.138-0.618 0.316s-0.249 0.409-0.249 0.648 0.088 0.47 0.249 0.648c0.16 0.178 0.38 0.291 0.618 0.316h-0.033zM9.898 26.884h0.066c0.111-0.004 0.22-0.031 0.321-0.077s0.191-0.113 0.266-0.195c0.075-0.082 0.133-0.178 0.17-0.283s0.054-0.216 0.048-0.327v-0.187c0.001-0.111-0.019-0.222-0.060-0.326s-0.103-0.198-0.18-0.278c-0.078-0.080-0.171-0.144-0.273-0.188s-0.213-0.067-0.324-0.069c-0.229 0-0.449 0.090-0.612 0.251s-0.256 0.38-0.259 0.609v0.187c-0.004 0.113 0.014 0.226 0.054 0.332s0.101 0.203 0.179 0.285c0.078 0.082 0.172 0.148 0.276 0.193s0.216 0.069 0.329 0.071zM1.775 16.027c0.529-4.729 4.784-6.283 2.502-9.534-1.102 2.304-2.778 5.114-4.067 7.418l1.565 2.116zM6.492 7.98c0.094-0.008 0.181-0.051 0.244-0.121s0.098-0.16 0.098-0.254c0.009-0.052 0.007-0.106-0.007-0.157s-0.039-0.099-0.073-0.14-0.077-0.073-0.125-0.096c-0.048-0.022-0.101-0.034-0.154-0.034s-0.106 0.012-0.154 0.034c-0.048 0.022-0.091 0.055-0.125 0.096s-0.059 0.088-0.073 0.14c-0.014 0.051-0.016 0.105-0.007 0.157 0 0.099 0.040 0.195 0.11 0.265s0.166 0.11 0.265 0.11zM20.965 30.51h-0.562v-1.422h-0.474v2.050h1.598v-0.628h-0.562zM14.527 30.51h-0.562v-1.422h-0.474v2.050h1.598v-0.628h-0.562zM17.746 30.51h-0.562v-1.422h-0.474v2.050h1.598v-0.628h-0.562zM8.090 30.51h-0.562v-1.422h-0.43v2.050h1.631v-0.628h-0.639zM11.309 30.51h-0.562v-1.422h-0.507v2.050h1.631v-0.628h-0.562zM1.653 30.51h-0.595v-1.422h-0.474v2.050h1.598v-0.628h-0.529zM4.872 30.51h-0.595v-1.422h-0.485v2.050h1.598v-0.628h-0.518z"></path>
</symbol>
</defs>
</svg>
